<?xml version="1.0" standalone="no"?>
<!DOCTYPE svg PUBLIC "-//W3C//DTD SVG 1.1//EN" "http://www.w3.org/Graphics/SVG/1.1/DTD/svg11.dtd" >
<svg xmlns="http://www.w3.org/2000/svg">
<metadata></metadata>
<defs>
<font id="zurich_btbold" horiz-adv-x="1024" >
<font-face units-per-em="2048" ascent="1556" descent="-492" />
<missing-glyph horiz-adv-x="567" />
<glyph unicode="&#xd;" horiz-adv-x="567" />
<glyph unicode=" "  horiz-adv-x="567" />
<glyph unicode="&#x09;" horiz-adv-x="567" />
<glyph unicode="&#xa0;" horiz-adv-x="567" />
<glyph unicode="!" horiz-adv-x="782" d="M262 0v270h258v-270h-258zM287 403l-31 1072h270l-30 -1072h-209z" />
<glyph unicode="&#x22;" horiz-adv-x="678" d="M406 1438h192v-559h-192v559zM80 1438h192v-559h-192v559z" />
<glyph unicode="#" horiz-adv-x="1575" d="M709 848l-88 -244h251l86 244h-249zM709 1464h221l-146 -415h242l148 415h221l-148 -415h283l-74 -201h-280l-84 -242h290l-71 -200h-291l-148 -416h-221l148 416h-244l-149 -416h-220l146 416h-287l76 200h282l86 242h-299l74 201h297z" />
<glyph unicode="$" horiz-adv-x="1133" d="M328 471v-8q0 -114 46.5 -180t139.5 -84v422q-217 52 -312.5 145.5t-95.5 251.5q0 169 107 275t301 128v142h109v-138q187 -15 284 -116t97 -281v-6h-234q-8 95 -43 145.5t-104 67.5v-387q252 -70 344 -159t92 -253q0 -184 -113 -297t-323 -139v-193h-109v188 q-214 6 -327 120t-113 323v33h254zM514 883v356q-77 -14 -120.5 -59.5t-43.5 -112.5q0 -65 41.5 -111.5t122.5 -72.5zM623 582v-383q82 19 125 68.5t43 125.5q0 67 -42.5 114t-125.5 75z" />
<glyph unicode="%" horiz-adv-x="2015" d="M1397 350q0 -109 30 -167t86 -58q60 0 91.5 61t31.5 174q0 104 -31 161t-87 57q-59 0 -90 -59t-31 -169zM1194 348q0 182 84 279.5t240 97.5q153 0 237 -93.5t84 -264.5q0 -189 -86 -290.5t-246 -101.5q-150 0 -231.5 97t-81.5 276zM379 1075q0 -109 30 -167t87 -58 q59 0 90.5 61t31.5 174q0 104 -31 161t-87 57q-59 0 -90 -59t-31 -169zM176 1073q0 182 84 279.5t240 97.5q153 0 236 -93t83 -265q0 -189 -85 -290.5t-245 -101.5q-150 0 -231.5 97t-81.5 276zM1341 1450h164l-833 -1475h-164z" />
<glyph unicode="&#x26;" horiz-adv-x="1327" d="M805 864v193h299v-193h182v-213h-182v-651h-508q-175 0 -244.5 15t-118.5 51q-72 53 -109.5 135t-37.5 186q0 154 75 250t210 115q-111 27 -172.5 114.5t-61.5 216.5q0 188 119.5 291t337.5 103h188v-220h-153q-94 0 -140.5 -46t-46.5 -140q0 -107 45.5 -157t141.5 -50 h176zM805 217v434h-170q-124 0 -176.5 -50.5t-52.5 -166.5q0 -119 49 -168t174 -49h176z" />
<glyph unicode="'" horiz-adv-x="352" d="M80 1438h192v-559h-192v559z" />
<glyph unicode="(" horiz-adv-x="678" d="M535 -307h-230q-92 263 -138 481t-46 393q0 193 49 414.5t158 515.5h227q-92 -277 -136 -504t-44 -426q0 -190 39.5 -406.5t120.5 -467.5z" />
<glyph unicode=")" horiz-adv-x="678" d="M143 -307q80 247 119 464.5t39 409.5q0 199 -44 426t-136 504h229q109 -294 158 -515.5t49 -414.5q0 -172 -46.5 -389.5t-139.5 -484.5h-228z" />
<glyph unicode="*" horiz-adv-x="1100" d="M133 981v213l305 -47l-184 248l182 100l117 -276l119 278l186 -115l-196 -237l307 39v-215l-299 43l184 -242l-184 -102l-117 278l-115 -278l-188 104l186 248z" />
<glyph unicode="+" horiz-adv-x="1706" d="M752 1221h202v-510h498v-199h-498v-512h-202v512h-498v199h498v510z" />
<glyph unicode="," horiz-adv-x="567" d="M63 -236l148 510h291l-226 -510h-213z" />
<glyph unicode="-" horiz-adv-x="713" d="M92 391v271h529v-271h-529z" />
<glyph unicode="." horiz-adv-x="567" d="M154 0v270h258v-270h-258z" />
<glyph unicode="/" horiz-adv-x="899" d="M43 -125l612 1622h158l-610 -1622h-160z" />
<glyph unicode="0" horiz-adv-x="1133" d="M760 715q0 258 -48.5 389t-144.5 131t-144 -129.5t-48 -390.5q0 -264 47.5 -393t144.5 -129q96 0 144.5 131t48.5 391zM567 1450q246 0 372 -186.5t126 -548.5t-126.5 -550t-371.5 -188t-371 187.5t-126 550.5q0 364 125.5 549.5t371.5 185.5z" />
<glyph unicode="1" horiz-adv-x="1133" d="M530 0v1106q-98 -68 -177 -111t-148 -67v286q105 45 192 97.5t160 115.5h277v-1427h-304z" />
<glyph unicode="2" horiz-adv-x="1133" d="M74 0v299l84 76q604 540 604 702q0 73 -47.5 120.5t-120.5 47.5q-92 0 -140.5 -54.5t-52.5 -162.5h-272v16q0 187 124 296.5t337 109.5q211 0 337 -103.5t126 -275.5q0 -162 -134.5 -338.5t-517.5 -490.5h660v-242h-987z" />
<glyph unicode="3" horiz-adv-x="1133" d="M84 1047q2 193 123 298t342 105q215 0 341 -111.5t126 -300.5q0 -125 -60.5 -203t-183.5 -112q125 -31 189.5 -112.5t64.5 -207.5q0 -188 -138 -308t-358 -120q-204 0 -322 101t-118 274v29h268q2 -89 51.5 -141t133.5 -52q92 0 145 57.5t53 155.5q0 107 -60 152t-216 45 h-107v238h111q152 0 212 44.5t60 151.5q0 98 -52.5 154.5t-143.5 56.5q-85 0 -136 -53t-53 -141h-272z" />
<glyph unicode="4" horiz-adv-x="1133" d="M264 545h361v549zM625 0v309h-582v287l559 831h309v-882h179v-236h-179v-309h-286z" />
<glyph unicode="5" horiz-adv-x="1133" d="M78 358h309q2 -72 43.5 -112.5t112.5 -40.5q97 0 154 75t57 205q0 112 -52 181t-135 69q-65 0 -112.5 -38t-71.5 -109h-301l33 839h854v-231h-584l-20 -348q58 51 121.5 74.5t140.5 23.5q190 0 310 -125t120 -323q0 -233 -147.5 -378t-385.5 -145q-203 0 -324.5 103.5 t-121.5 275.5v4z" />
<glyph unicode="6" horiz-adv-x="1133" d="M764 457q0 113 -50.5 179t-135.5 66q-86 0 -135.5 -65.5t-49.5 -179.5q0 -112 50.5 -180t131.5 -68q87 0 138 66.5t51 181.5zM397 827q62 53 125 79t129 26q190 0 305 -123t115 -328q0 -228 -135.5 -367t-357.5 -139q-252 0 -379 163.5t-127 486.5q0 407 137 615t405 208 q190 0 296 -96t108 -268h-262q-9 71 -50.5 112t-105.5 41q-102 0 -152.5 -99t-50.5 -298v-13z" />
<glyph unicode="7" horiz-adv-x="1133" d="M199 0l524 1184h-660v243h953v-272l-477 -1155h-340z" />
<glyph unicode="8" horiz-adv-x="1133" d="M336 754q-125 29 -188.5 106t-63.5 199q0 187 126 290t357 103q233 0 357.5 -102t124.5 -291q0 -119 -63.5 -195.5t-188.5 -109.5q140 -54 203 -138t63 -217q0 -180 -141.5 -302t-354.5 -122q-215 0 -356 123t-141 312q0 120 62.5 201.5t203.5 142.5zM362 412 q0 -84 60 -145.5t143 -61.5q90 0 148.5 60.5t58.5 152.5q0 88 -60.5 149.5t-146.5 61.5q-84 0 -143.5 -63.5t-59.5 -153.5zM385 1051q0 -83 50 -135t130 -52q82 0 133.5 52t51.5 135q0 76 -53 127t-132 51q-76 0 -128 -51t-52 -127z" />
<glyph unicode="9" horiz-adv-x="1133" d="M369 967q0 -113 50 -178.5t136 -65.5q85 0 134.5 65t49.5 179q0 111 -50.5 179t-131.5 68q-87 0 -137.5 -66t-50.5 -181zM735 598q-61 -52 -124.5 -78t-129.5 -26q-190 0 -305 122t-115 326q0 229 135.5 367.5t358.5 138.5q251 0 378.5 -163.5t127.5 -485.5 q0 -407 -137.5 -615.5t-405.5 -208.5q-189 0 -295 96.5t-108 270.5h261q10 -72 51 -113t105 -41q101 0 152 100.5t51 297.5v12z" />
<glyph unicode=":" horiz-adv-x="782" d="M262 758v270h258v-270h-258zM262 0v270h258v-270h-258z" />
<glyph unicode=";" horiz-adv-x="782" d="M262 760v270h258v-270h-258zM119 -236l145 508h287l-223 -508h-209z" />
<glyph unicode="&#x3c;" horiz-adv-x="1706" d="M1442 1194v-219l-893 -365l893 -364v-219l-1178 485v199z" />
<glyph unicode="=" horiz-adv-x="1706" d="M254 496h1198v-199h-1198v199zM254 926h1198v-199h-1198v199z" />
<glyph unicode="&#x3e;" horiz-adv-x="1706" d="M264 1194l1178 -483v-199l-1178 -485v219l895 364l-895 365v219z" />
<glyph unicode="?" horiz-adv-x="1014" d="M297 334v211q0 77 72 156q20 22 30 34q133 157 171 226.5t38 130.5q0 93 -63 149.5t-168 56.5q-51 0 -120.5 -12.5t-162.5 -38.5v215q87 18 165 26.5t147 8.5q245 0 378.5 -96.5t133.5 -274.5q0 -102 -48 -189.5t-163 -193.5q-23 -20 -63 -54q-124 -107 -124 -187v-168 h-223zM287 0v250h239v-250h-239z" />
<glyph unicode="@" horiz-adv-x="2048" d="M1167 272q-55 -84 -127 -123.5t-170 -39.5q-158 0 -240.5 86t-82.5 254q0 239 139.5 401t343.5 162q80 0 139 -33t97 -98l53 98h178l-147 -598q-3 -11 -5 -22.5t-2 -18.5q0 -35 24 -52.5t71 -17.5q39 0 81.5 20t79.5 56q86 80 130.5 187t44.5 235q0 240 -185.5 394.5 t-478.5 154.5q-141 0 -262.5 -34t-220.5 -101q-170 -114 -261.5 -285t-91.5 -375q0 -307 207 -490.5t553 -183.5q162 0 316.5 49t287.5 142l82 -117q-153 -115 -324.5 -173t-357.5 -58q-192 0 -353 48.5t-286 143.5q-155 121 -232 279t-77 358q0 167 52.5 318.5t154.5 275.5 q148 181 356 274t463 93q169 0 317.5 -45.5t258.5 -128.5q135 -105 201.5 -239.5t66.5 -303.5q0 -165 -65.5 -304.5t-188.5 -238.5q-70 -56 -152.5 -85.5t-171.5 -29.5q-106 0 -159.5 42t-55.5 124zM1217 700q-13 81 -57.5 123.5t-117.5 42.5q-114 0 -198 -124t-84 -298 q0 -92 40.5 -140t117.5 -48q83 0 151.5 63t93.5 164z" />
<glyph unicode="A" horiz-adv-x="1436" d="M6 0l535 1475h372l514 -1475h-321l-105 317h-583l-115 -317h-297zM498 559h426l-203 625z" />
<glyph unicode="B" horiz-adv-x="1354" d="M442 877h207q145 0 201.5 40.5t56.5 139.5q0 106 -55.5 149t-202.5 43h-207v-372zM442 236h207q193 0 252.5 44.5t59.5 163.5q0 116 -64 161.5t-248 45.5h-207v-415zM141 0v1475h506q293 0 427 -90.5t134 -286.5q0 -124 -59.5 -203t-181.5 -117q150 -40 226.5 -132.5 t76.5 -235.5q0 -89 -26.5 -160t-78.5 -123q-69 -69 -174.5 -98t-341.5 -29h-508z" />
<glyph unicode="C" horiz-adv-x="1427" d="M1358 442q-16 -228 -170 -347.5t-432 -119.5q-330 0 -500 192t-170 564q0 371 175 569.5t501 198.5q266 0 421.5 -119.5t166.5 -330.5h-291q-5 106 -82 169.5t-203 63.5q-184 0 -277.5 -137.5t-93.5 -407.5q0 -278 92 -412.5t281 -134.5q122 0 199.5 69t85.5 183h297z " />
<glyph unicode="D" horiz-adv-x="1477" d="M141 0v1475h461q185 0 297 -29t207 -94q136 -95 206 -251.5t70 -365.5q0 -362 -197.5 -548.5t-582.5 -186.5h-461zM455 244h159q228 0 334.5 118t106.5 371q0 259 -106.5 379.5t-334.5 120.5h-159v-989z" />
<glyph unicode="E" horiz-adv-x="1229" d="M143 0v1475h979v-244h-659v-348h618v-240h-618v-397h682v-246h-1002z" />
<glyph unicode="F" horiz-adv-x="1126" d="M141 0v1475h944v-244h-628v-348h585v-240h-585v-643h-316z" />
<glyph unicode="G" horiz-adv-x="1577" d="M1446 786v-690q-122 -61 -262 -91t-310 -30q-374 0 -578 193.5t-204 548.5q0 367 205 574.5t569 207.5q269 0 426.5 -123t157.5 -329v-27h-297q-6 136 -84 207t-221 71q-201 0 -317.5 -153t-116.5 -418q0 -260 122.5 -394t360.5 -134q62 0 122.5 7.5t118.5 22.5l1 322 h-281v235h588z" />
<glyph unicode="H" horiz-adv-x="1464" d="M141 0v1475h318v-590h557v590h307v-1475h-307v645h-557v-645h-318z" />
<glyph unicode="I" horiz-adv-x="596" d="M141 0v1475h314v-1475h-314z" />
<glyph unicode="J" horiz-adv-x="1126" d="M983 1475v-1000q0 -252 -116.5 -376t-354.5 -124q-241 0 -366.5 119.5t-125.5 349.5v17h299v-29q0 -111 46 -169t135 -58q96 0 133 61t37 260v949h313z" />
<glyph unicode="K" horiz-adv-x="1346" d="M143 0v1475h314v-637l481 637h354l-518 -660l569 -815h-366l-520 764v-764h-314z" />
<glyph unicode="L" horiz-adv-x="1165" d="M143 0v1475h314v-1225h665v-250h-979z" />
<glyph unicode="M" horiz-adv-x="1909" d="M143 0v1475h498l309 -1065l307 1065h508v-1475h-292v1247l-386 -1247h-276l-385 1247v-1247h-283z" />
<glyph unicode="N" horiz-adv-x="1575" d="M141 0v1475h455l555 -1186v1186h283v-1475h-437l-573 1221v-1221h-283z" />
<glyph unicode="O" horiz-adv-x="1597" d="M424 743q0 -269 95 -408.5t278 -139.5q184 0 279 139.5t95 408.5q0 264 -96 402.5t-278 138.5q-181 0 -277 -139t-96 -402zM94 745q0 349 189.5 550.5t515.5 201.5q325 0 513.5 -201.5t188.5 -550.5q0 -361 -186 -565.5t-516 -204.5q-331 0 -518 204t-187 566z" />
<glyph unicode="P" horiz-adv-x="1235" d="M440 817h150q148 0 210 48t62 159q0 110 -62.5 157.5t-209.5 47.5h-150v-412zM141 0v1475h437q314 0 455 -106.5t141 -342.5q0 -226 -130 -341.5t-385 -115.5h-219v-569h-299z" />
<glyph unicode="Q" horiz-adv-x="1597" d="M426 750q0 -270 95.5 -410.5t279.5 -140.5q183 0 278 140t95 411q0 262 -96.5 401t-276.5 139q-183 0 -279 -138.5t-96 -401.5zM1548 0h-407q-54 0 -163 -10t-165 -10q-190 0 -318 51t-227 166q-82 93 -128 236t-46 308q0 349 190 552.5t517 203.5q323 0 507.5 -193.5 t184.5 -533.5q0 -175 -54 -317.5t-153 -227.5h262v-225z" />
<glyph unicode="R" horiz-adv-x="1350" d="M451 834h186q175 0 240 45t65 157q0 119 -61.5 165t-243.5 46h-186v-413zM141 0v1475h613q257 0 378 -90t121 -281q0 -157 -68 -243t-218 -122q121 -13 176.5 -73.5t73.5 -204.5l26 -213q12 -89 30 -149t46 -99h-342q-16 31 -25.5 71t-15.5 109l-21 223 q-12 135 -42.5 163t-149.5 28h-272v-594h-310z" />
<glyph unicode="S" horiz-adv-x="1348" d="M84 479h309q0 -147 72.5 -221t218.5 -74q117 0 190.5 57.5t73.5 145.5q0 139 -347 257l-33 11q-11 4 -30 10q-194 64 -280 128q-62 46 -95.5 117.5t-33.5 158.5q0 199 150.5 315.5t410.5 116.5q243 0 376.5 -113t133.5 -317v-8h-274q-10 115 -75.5 175t-180.5 60 q-111 0 -176.5 -51t-65.5 -137q0 -134 364 -252l19 -6q278 -92 365.5 -184t87.5 -254q0 -206 -157.5 -322.5t-438.5 -116.5q-292 0 -438 121t-146 363v20z" />
<glyph unicode="T" horiz-adv-x="1235" d="M459 0v1235h-434v240h1185v-240h-434v-1235h-317z" />
<glyph unicode="U" horiz-adv-x="1542" d="M139 1475h314v-930q0 -164 81.5 -245t247.5 -81q165 0 242.5 82.5t77.5 257.5v916h303v-908q0 -298 -156.5 -444t-476.5 -146q-323 0 -478 144.5t-155 445.5v908z" />
<glyph unicode="V" horiz-adv-x="1462" d="M903 0h-352l-537 1475h342l389 -1153l379 1153h322z" />
<glyph unicode="W" horiz-adv-x="2030" d="M12 1475h346l213 -1147l293 1147h357l258 -1147l233 1147h305l-362 -1475h-359l-266 1130l-289 -1130h-352z" />
<glyph unicode="X" horiz-adv-x="1462" d="M356 0h-325l506 762l-474 713h363l309 -510l324 510h330l-480 -707l506 -768h-366l-342 559z" />
<glyph unicode="Y" horiz-adv-x="1350" d="M518 0v545l-498 930h332l338 -631l305 631h328l-489 -930v-545h-316z" />
<glyph unicode="Z" horiz-adv-x="1237" d="M53 0v283l766 960h-725v232h1059v-285l-758 -946h776v-244h-1118z" />
<glyph unicode="[" horiz-adv-x="678" d="M633 -309h-463v1784h463v-181h-217v-1417h217v-186z" />
<glyph unicode="\" horiz-adv-x="899" d="M655 -125l-612 1622h160l610 -1622h-158z" />
<glyph unicode="]" horiz-adv-x="678" d="M84 -309v186h217v1417h-217v181h463v-1784h-463z" />
<glyph unicode="^" horiz-adv-x="2048" d="M897 1460h252l481 -561h-235l-371 371l-373 -371h-235z" />
<glyph unicode="_" d="M0 -279h1024v-204h-1024v204z" />
<glyph unicode="`" d="M219 1526h258l197 -369h-142z" />
<glyph unicode="a" horiz-adv-x="1128" d="M709 493l-33 1q-144 0 -220.5 -47.5t-76.5 -135.5q0 -59 40.5 -97t102.5 -38q91 0 140 67.5t49 194.5q0 21 -0.5 32.5t-1.5 22.5zM754 0q-1 4 -2 11q-9 77 -11 128q-66 -87 -145.5 -129.5t-179.5 -42.5q-145 0 -236.5 91t-91.5 235q0 180 141.5 274.5t413.5 94.5 q11 0 33.5 -1.5t34.5 -1.5q0 8 1 22t1 21q0 95 -34.5 139t-109.5 44q-67 0 -101 -35t-40 -111l-297 1q2 158 110.5 236.5t327.5 78.5q109 0 194.5 -28t139.5 -81q51 -49 71.5 -112.5t20.5 -206.5v-314q0 -37 4 -108.5t12 -204.5h-257z" />
<glyph unicode="b" horiz-adv-x="1245" d="M426 512q0 -154 59.5 -244t159.5 -90q99 0 154 87.5t55 246.5t-55 247.5t-154 88.5q-100 0 -159.5 -90.5t-59.5 -245.5zM125 0q5 43 7.5 85t2.5 85v1305h297v-588q55 81 131.5 120.5t177.5 39.5q188 0 302 -145.5t114 -387.5q0 -241 -116 -387.5t-304 -146.5 q-98 0 -175.5 42t-133.5 125l-10 -147h-293z" />
<glyph unicode="c" horiz-adv-x="1020" d="M961 389q0 -196 -110.5 -305t-309.5 -109q-213 0 -337 148.5t-124 404.5q0 245 128 385t353 140q182 0 289 -100.5t110 -274.5h-282q-10 98 -42.5 141t-96.5 43q-76 0 -113 -80.5t-37 -246.5q0 -188 36.5 -268.5t119.5 -80.5q61 0 94.5 51t38.5 152h283z" />
<glyph unicode="d" horiz-adv-x="1245" d="M391 512q0 -159 55 -246.5t154 -87.5q101 0 160 89.5t59 244.5q0 156 -59 246t-160 90q-99 0 -154 -88.5t-55 -247.5zM827 0l-10 147q-55 -83 -133 -125t-176 -42q-187 0 -303.5 146.5t-116.5 387.5q0 242 114 387.5t302 145.5q102 0 178 -39.5t131 -120.5v588h297v-1268 q0 -78 2.5 -126.5t7.5 -80.5h-293z" />
<glyph unicode="e" horiz-adv-x="1120" d="M381 641h352q-2 112 -45.5 167.5t-128.5 55.5q-77 0 -124.5 -59t-53.5 -164zM1006 322q-13 -163 -129.5 -254t-311.5 -91q-227 0 -353 139t-126 388q0 262 129 405.5t365 143.5q219 0 338.5 -139.5t119.5 -395.5q0 -28 -0.5 -42t-1.5 -25l-663 -1q2 -138 49 -206t141 -68 q74 0 117.5 36t60.5 110h265z" />
<glyph unicode="f" horiz-adv-x="670" d="M158 0v823h-156v205h156v199q0 138 77.5 206t235.5 68q26 0 62.5 -2.5t117.5 -11.5v-207q-19 3 -37 4.5t-32 1.5q-65 0 -98 -30.5t-33 -90.5v-137h182v-205h-182v-823h-293z" />
<glyph unicode="g" horiz-adv-x="1223" d="M383 537q0 -142 53.5 -221.5t149.5 -79.5q97 0 154 80.5t57 220.5t-57 221.5t-154 81.5q-96 0 -149.5 -79.5t-53.5 -223.5zM1096 1028q-4 -31 -6.5 -70.5t-2.5 -93.5v-803q0 -246 -120.5 -356.5t-388.5 -110.5q-219 0 -335 86.5t-116 247.5h285q6 -65 49 -101t114 -36 q117 0 165 58t48 200v121q-56 -75 -127.5 -110t-166.5 -35q-183 0 -293.5 139.5t-110.5 372.5q0 230 112 371t294 141q95 0 170 -40.5t129 -119.5l10 139h291z" />
<glyph unicode="h" horiz-adv-x="1221" d="M137 0v1475h297v-580q57 81 133.5 119.5t184.5 38.5q170 0 252.5 -96.5t82.5 -294.5v-662h-296v621q0 115 -39.5 165t-128.5 50q-86 0 -137.5 -55.5t-51.5 -147.5v-633h-297z" />
<glyph unicode="i" horiz-adv-x="567" d="M135 1214v261h299v-261h-299zM135 1028h299v-1028h-299v1028z" />
<glyph unicode="j" horiz-adv-x="567" d="M135 1214v261h299v-261h-299zM135 1028h299v-1073q0 -205 -75 -281.5t-263 -76.5q-15 0 -61 2q-19 1 -31 2v206q77 4 104 36t27 145v1040z" />
<glyph unicode="k" horiz-adv-x="1120" d="M135 0v1475h295v-850l305 403h342l-352 -436l377 -592h-359l-313 547v-547h-295z" />
<glyph unicode="l" horiz-adv-x="567" d="M135 0v1475h297v-1475h-297z" />
<glyph unicode="m" horiz-adv-x="1868" d="M137 0v831q0 55 -2 103.5t-6 93.5h283l8 -154q58 93 137.5 136t194.5 43q116 0 196 -51.5t117 -149.5q50 104 131 152.5t205 48.5q170 0 253 -96.5t83 -294.5v-662h-297v621q0 115 -39.5 165t-128.5 50q-86 0 -137.5 -55.5t-51.5 -147.5v-633h-297v621q0 114 -39 164.5 t-126 50.5q-86 0 -136.5 -55t-50.5 -148v-633h-297z" />
<glyph unicode="n" horiz-adv-x="1221" d="M139 0v831q0 44 -2.5 92t-7.5 105h285l6 -154q58 93 137.5 136t194.5 43q170 0 252.5 -96.5t82.5 -294.5v-662h-294v621q0 115 -39.5 165t-128.5 50q-86 0 -138.5 -55.5t-52.5 -147.5v-633h-295z" />
<glyph unicode="o" horiz-adv-x="1235" d="M389 516q0 -167 58 -253.5t169 -86.5q112 0 170 86.5t58 253.5q0 168 -58 254t-170 86q-111 0 -169 -86t-58 -254zM86 514q0 244 145 391.5t385 147.5q242 0 387.5 -147t145.5 -392t-145.5 -392t-387.5 -147q-240 0 -385 147.5t-145 391.5z" />
<glyph unicode="p" horiz-adv-x="1245" d="M854 516q0 160 -55 248t-154 88q-101 0 -160 -90t-59 -246t59 -246t160 -90q99 0 154 88.5t55 247.5zM418 1028l10 -147q56 83 133.5 125.5t175.5 42.5q188 0 304 -147t116 -388q0 -242 -114 -387t-302 -145q-101 0 -177.5 39t-131.5 120v-530h-297v1208q0 67 -2.5 116.5 t-7.5 92.5h293z" />
<glyph unicode="q" horiz-adv-x="1245" d="M391 516q0 -159 55 -247.5t154 -88.5q101 0 160 90t59 246t-59 246t-160 90q-99 0 -154 -88t-55 -248zM813 -389v530q-55 -81 -131 -120t-178 -39q-188 0 -302 145t-114 387q0 241 116.5 388t303.5 147q98 0 176 -42.5t133 -125.5l10 147h293q-5 -39 -7.5 -86t-2.5 -100 v-1231h-297z" />
<glyph unicode="r" horiz-adv-x="788" d="M133 0v709q0 87 -3 167t-9 152h274l11 -184q39 95 124.5 143.5t212.5 48.5h9l-1 -270l-40.5 3t-24.5 1q-117 0 -183.5 -57t-66.5 -158v-555h-303z" />
<glyph unicode="s" horiz-adv-x="1012" d="M60 309h278q3 -69 43 -102t123 -33q72 0 112.5 31t40.5 86q0 84 -190 132q-47 12 -73 19q-170 46 -242 114.5t-72 182.5q0 138 120 226t316 88q176 0 278.5 -77.5t102.5 -209.5v-8h-262q-8 60 -43.5 89.5t-99.5 29.5q-65 0 -104.5 -29t-39.5 -76q0 -72 198 -118 q46 -11 70 -17q175 -43 250.5 -114t75.5 -189q0 -154 -126.5 -256.5t-321.5 -102.5q-206 0 -318.5 86.5t-115.5 247.5z" />
<glyph unicode="t" horiz-adv-x="788" d="M201 825h-195v203h195v199l297 110v-309h237v-203h-239v-501q0 -57 29 -87t83 -30q29 0 60 3.5t65 10.5v-211q-68 -15 -133 -22.5t-129 -7.5q-141 0 -205.5 68.5t-64.5 219.5v557z" />
<glyph unicode="u" horiz-adv-x="1221" d="M1085 1028v-829q0 -55 2.5 -104.5t6.5 -94.5h-283l-8 154q-58 -93 -137.5 -136t-194.5 -43q-171 0 -253.5 96.5t-82.5 295.5v661h297v-618q0 -116 39.5 -165.5t128.5 -49.5q86 0 137 54t51 146v633h297z" />
<glyph unicode="v" horiz-adv-x="1130" d="M14 1028h310l239 -700l244 700h283l-367 -1028h-334z" />
<glyph unicode="w" horiz-adv-x="1796" d="M10 1028h320l186 -756l221 756h328l211 -749l209 749h293l-351 -1028h-327l-211 756l-215 -756h-330z" />
<glyph unicode="x" horiz-adv-x="1122" d="M356 555l-309 473h334l197 -323l186 323h311l-319 -496l346 -532h-346l-219 377l-205 -377h-316z" />
<glyph unicode="y" horiz-adv-x="1126" d="M285 -389l127 389l-389 1028h329l223 -672l226 672h299l-393 -1028l-119 -389h-303z" />
<glyph unicode="z" horiz-adv-x="1010" d="M76 0v268l522 570h-508v190h823v-254l-514 -567h535v-207h-858z" />
<glyph unicode="{" d="M883 1477v-209q-9 0 -25 1t-22 1q-101 0 -136.5 -38.5t-35.5 -162.5v-240q0 -148 -45 -210t-162 -89q117 -27 162 -88t45 -209v-241q0 -123 35 -161t137 -38q6 0 22 1t25 1v-209q-14 0 -39 -1t-37 -1q-100 0 -167 12t-114 37q-57 34 -80.5 91.5t-23.5 199.5v252 q0 137 -51 194.5t-172 57.5q-6 0 -20 -1t-21 -1v209q7 0 21 -1t20 -1q120 0 171.5 58t51.5 196v250q0 143 23.5 201t80.5 92q47 25 114 37t167 12q12 0 37 -1t39 -1z" />
<glyph unicode="|" d="M410 1565h206v-2048h-206v2048z" />
<glyph unicode="}" d="M143 1477h68q110 0 177 -12t112 -38q57 -32 80.5 -91.5t23.5 -198.5v-252q0 -137 51 -194.5t172 -57.5q6 0 20 1t21 1v-209h-37q-125 0 -176 -56t-51 -194v-252q0 -143 -23.5 -201t-80.5 -90q-47 -25 -114 -37t-167 -12q-12 0 -37 1t-39 1v209q9 0 25 -1t22 -1 q101 0 136.5 38.5t35.5 160.5v239q0 150 45 211.5t162 87.5q-117 27 -162 89t-45 210v242q0 122 -35.5 160.5t-136.5 38.5q-6 0 -22 -1t-25 -1v209z" />
<glyph unicode="~" horiz-adv-x="1706" d="M1530 803v-221q-104 -71 -196.5 -104.5t-182.5 -33.5q-46 0 -92 8t-92 23q-24 8 -71 25q-219 75 -333 75q-85 0 -177.5 -37.5t-207.5 -119.5v221q107 72 204 107.5t183 35.5q117 0 291 -58l4 -1q18 -6 55 -19q155 -55 240 -55t175 37t200 117z" />
<glyph unicode="&#xa1;" horiz-adv-x="782" d="M520 1475v-273h-258v273h258zM496 1071l30 -1071h-270l31 1071h209z" />
<glyph unicode="&#xa2;" horiz-adv-x="1133" d="M467 270l149 615q-16 5 -28.5 7.5t-22.5 2.5q-75 0 -111 -80t-36 -248q0 -133 11 -195t38 -102zM1008 414v-4q0 -187 -108.5 -298.5t-289.5 -111.5q-22 0 -47 3.5t-53 10.5l-68 -272l-104 27l68 268q-132 50 -206.5 181.5t-74.5 316.5q0 249 121 395.5t323 146.5 q22 0 45.5 -2.5t48.5 -7.5l64 252l104 -25l-63 -245q113 -34 173 -121.5t65 -224.5l-265 -1q-4 34 -14 59.5t-27 43.5l-141 -587q8 -3 16 -4t23 -1q58 0 89.5 49.5t37.5 151.5h283z" />
<glyph unicode="&#xa3;" horiz-adv-x="1133" d="M92 0v236h148v432h-170v211h170v231q0 162 112.5 251t319.5 89q186 0 286.5 -86t100.5 -246v-26h-260q0 82 -32 123.5t-95 41.5q-70 0 -100.5 -38t-30.5 -127v-213h329v-211h-329v-432h514v-236h-963z" />
<glyph unicode="&#xa4;" horiz-adv-x="1133" d="M443 954h366l-64 -141h-311v-20q0 -3 -1 -22t-1 -36q0 -15 1 -35t1 -24v-14h244l-64 -142h-171q3 -167 50.5 -249.5t141.5 -82.5q81 0 124.5 64t43.5 182v8h301q-10 -224 -128.5 -345.5t-328.5 -121.5q-225 0 -352 136.5t-156 408.5h-164l64 142h90v90v61h-180l61 141 h129q26 267 156 406t354 139q196 0 318 -116t130 -310h-296q0 101 -41.5 156t-116.5 55q-93 0 -142 -80.5t-58 -249.5z" />
<glyph unicode="&#xa5;" horiz-adv-x="1356" d="M528 0v526l-24 45h-461v115h397l-104 188h-293v115h229l-239 436h303l360 -639l322 639h305l-238 -436h228v-115h-289l-102 -188h391v-115h-455l-24 -45v-526h-306z" />
<glyph unicode="&#xa6;" d="M410 408h206v-758h-206v758zM410 1432h206v-758h-206v758z" />
<glyph unicode="&#xa7;" horiz-adv-x="1100" d="M578 563q58 30 93.5 80.5t35.5 101.5q0 59 -46.5 100.5t-138.5 65.5q-57 -30 -93 -81t-36 -101q0 -58 47 -100.5t138 -65.5zM893 1217q-85 37 -161.5 58t-125.5 21q-81 0 -130.5 -30.5t-49.5 -79.5q0 -22 10.5 -41t28.5 -31q38 -25 124 -49t122 -39q114 -46 170.5 -118 t56.5 -173q0 -83 -47 -149.5t-133 -106.5q74 -37 113.5 -97.5t39.5 -135.5q0 -123 -104.5 -198t-278.5 -75q-100 0 -179.5 15.5t-141.5 46.5v223q101 -41 171 -60.5t116 -19.5q81 0 130.5 31t49.5 80q0 21 -10.5 40t-28.5 31q-38 25 -123.5 49.5t-120.5 39.5 q-115 46 -172 118t-57 172q0 83 47 150t133 106q-74 37 -114 98t-40 136q0 122 105 197t278 75q100 0 180 -15.5t142 -47.5v-221z" />
<glyph unicode="&#xa8;" d="M573 1217v243h226v-243h-226zM225 1217v243h226v-243h-226z" />
<glyph unicode="&#xa9;" horiz-adv-x="1706" d="M1212 897h-188q-8 70 -53 108.5t-119 38.5q-91 0 -143 -81.5t-52 -227.5q0 -147 52 -224t151 -77q73 0 117 42t53 119l193 1q-8 -139 -109 -223t-260 -84q-186 0 -293.5 118t-107.5 322q0 206 109.5 328.5t293.5 122.5q152 0 250.5 -78t105.5 -205zM854 1356 q-128 0 -239.5 -46t-198.5 -134q-89 -90 -136 -203.5t-47 -237.5q0 -125 47 -237t136 -201q88 -88 201 -135t237 -47t237.5 47t204.5 137q88 86 133.5 197t45.5 239q0 126 -46.5 238.5t-134.5 200.5q-89 89 -201 135.5t-239 46.5zM852 1479q152 0 287.5 -56t242.5 -163 q105 -105 160 -240.5t55 -286.5q0 -152 -54.5 -284t-160.5 -236q-111 -108 -248 -165.5t-282 -57.5q-147 0 -280.5 56.5t-241.5 164.5q-107 106 -163 240.5t-56 281.5q0 149 56 284.5t163 244.5q105 106 238 161.5t284 55.5z" />
<glyph unicode="&#xaa;" horiz-adv-x="846" d="M109 594h608v-123h-608v123zM522 1092h-18q-102 0 -156.5 -31t-54.5 -88q0 -39 28 -63.5t72 -24.5q62 0 96.5 46t34.5 128q0 5 -1 15.5t-1 17.5zM756 1192v-219q0 -23 3 -80t9 -148h-211q-2 15 -4 34t-4 52q-44 -54 -102.5 -81t-133.5 -27q-111 0 -183.5 64.5 t-72.5 162.5q0 136 106 204.5t316 68.5h45v24q0 63 -23.5 91t-74.5 28q-47 0 -69 -23.5t-27 -78.5h-242q2 119 86 177t254 58q175 0 251.5 -71.5t76.5 -235.5z" />
<glyph unicode="&#xab;" horiz-adv-x="1241" d="M862 119l-223 403l221 387h273l-195 -387l190 -403h-266zM332 119l-223 403l221 387h272l-194 -387l190 -403h-266z" />
<glyph unicode="&#xac;" horiz-adv-x="1706" d="M254 864h1198v-502h-199v306h-999v196z" />
<glyph unicode="&#xad;" horiz-adv-x="713" d="M92 391v271h529v-271h-529z" />
<glyph unicode="&#xae;" horiz-adv-x="1706" d="M745 1034v-239h99q88 0 129 28t41 88q0 63 -44 93t-136 30h-89zM545 1161h323q176 0 264.5 -59.5t88.5 -177.5q0 -82 -48 -140t-133 -79l185 -369h-224l-157 338h-99v-338h-200v825zM854 1356q-127 0 -236 -44.5t-196 -131.5q-91 -91 -140 -206.5t-49 -238.5 q0 -124 46 -235.5t133 -198.5q89 -91 203 -139.5t237 -48.5q120 0 233.5 47t206.5 135q87 84 135 196t48 232q0 133 -44.5 245t-132.5 201q-90 93 -202.5 140t-241.5 47zM852 1479q154 0 290.5 -57.5t243.5 -166.5q103 -104 157 -238t54 -284q0 -152 -56 -287.5t-163 -238.5 q-107 -105 -243.5 -161t-282.5 -56q-149 0 -285 58t-243 167q-104 105 -158.5 238.5t-54.5 279.5q0 102 27 198.5t81 188.5q101 170 267 264.5t366 94.5z" />
<glyph unicode="&#xaf;" d="M225 1262v153h574v-153h-574z" />
<glyph unicode="&#xb0;" horiz-adv-x="674" d="M338 1335q-73 0 -124.5 -51t-51.5 -123q0 -74 51 -125t125 -51q72 0 123 52t51 124t-51 123t-123 51zM338 1464q126 0 214.5 -89.5t88.5 -215.5q0 -125 -89 -214t-216 -89q-126 0 -213.5 88t-87.5 215t88.5 216t214.5 89z" />
<glyph unicode="&#xb1;" horiz-adv-x="1706" d="M254 197h1198v-199h-1198v199zM752 1223h202v-326h498v-199h-498v-325h-202v325h-498v199h498v326z" />
<glyph unicode="&#xb2;" horiz-adv-x="748" d="M49 569v181l56 45q399 324 399 422q0 42 -32 71t-81 29q-59 0 -91.5 -33.5t-35.5 -97.5h-178v10q0 113 81.5 178.5t221.5 65.5q139 0 222 -62t83 -166q0 -98 -88 -203t-342 -294h436v-146h-651z" />
<glyph unicode="&#xb3;" horiz-adv-x="748" d="M56 1198q1 116 80.5 179t225.5 63q142 0 225 -67.5t83 -180.5q0 -76 -39.5 -122.5t-120.5 -65.5q81 -19 124.5 -68.5t43.5 -124.5q0 -113 -91.5 -184.5t-236.5 -71.5q-135 0 -213 60.5t-78 164.5v17h179q0 -54 32.5 -84.5t87.5 -30.5q61 0 96 34t35 93q0 65 -39.5 92 t-142.5 27h-69v141h71q100 0 140 27.5t40 91.5q0 58 -34.5 92.5t-94.5 34.5q-55 0 -89 -32t-36 -85h-179z" />
<glyph unicode="&#xb4;" d="M805 1526l-313 -369h-142l197 369h258z" />
<glyph unicode="&#xb5;" horiz-adv-x="1249" d="M205 1092h289l-76 -435q-15 -80 -23 -151.5t-8 -116.5q0 -93 42 -138.5t128 -45.5q100 0 155.5 82t92.5 291l90 514h289l-193 -1092h-268l18 117q-42 -78 -93.5 -114t-121.5 -36q-67 0 -119 29.5t-94 91.5l-90 -526h-286z" />
<glyph unicode="&#xb6;" d="M983 1479v-111h-113v-1368h-151v1368h-158v-1368h-153v784q-167 6 -267 101t-100 245q0 158 107 253.5t284 95.5h551z" />
<glyph unicode="&#xb7;" horiz-adv-x="567" d="M131 723q0 63 43.5 107t106.5 44t107 -44t44 -107t-44 -107.5t-107 -44.5t-106.5 44.5t-43.5 107.5z" />
<glyph unicode="&#xb8;" d="M231 -438v129q81 -21 146 -32t110 -11q53 0 78 17.5t25 55.5t-28 54t-93 16q-23 0 -35 -0.5t-22 -1.5v211h100v-90h14q119 0 178.5 -47.5t59.5 -143.5q0 -100 -66.5 -150t-199.5 -50q-52 0 -120 11t-147 32z" />
<glyph unicode="&#xb9;" horiz-adv-x="748" d="M350 569v664q-62 -39 -115 -65.5t-100 -41.5v172q67 25 125 56.5t109 70.5h182v-856h-201z" />
<glyph unicode="&#xba;" horiz-adv-x="926" d="M115 594h696v-123h-696v123zM463 1346q-80 0 -121 -58.5t-41 -171.5q0 -114 41 -172.5t121 -58.5t121 58t41 173q0 114 -41 172t-121 58zM463 1497q185 0 296 -104.5t111 -278.5t-111.5 -279.5t-295.5 -105.5t-296 105.5t-112 279.5t111.5 278.5t296.5 104.5z" />
<glyph unicode="&#xbb;" horiz-adv-x="1241" d="M379 119h-268l192 403l-194 387h270l223 -387zM909 119h-268l193 403l-195 387h270l224 -387z" />
<glyph unicode="&#xbc;" horiz-adv-x="1769" d="M1223 305h227v307zM1450 0v174h-367v160l353 465h194v-494h113v-131h-113v-174h-180zM530 -25h-157l868 1475h158zM334 627v618q-63 -38 -112.5 -62t-92.5 -36v160q66 24 121 53t102 65h174v-798h-192z" />
<glyph unicode="&#xbd;" horiz-adv-x="1769" d="M1104 0v168l52 42q380 302 380 394q0 40 -29.5 66t-74.5 26q-59 0 -89.5 -30t-33.5 -90l-170 -1v11q0 103 78 164t210 61q134 0 213.5 -57.5t79.5 -153.5q0 -92 -84.5 -190.5t-326.5 -274.5h415v-135h-620zM530 -25h-157l868 1475h158zM334 627v618q-63 -38 -112.5 -62 t-92.5 -36v160q66 24 121 53t102 65h174v-798h-192z" />
<glyph unicode="&#xbe;" horiz-adv-x="1769" d="M1221 305h227v307zM1448 0v174h-367v160l353 465h194v-494h113v-131h-113v-174h-180zM528 -25h-157l868 1475h158zM53 1212q0 108 76 167t217 59q135 0 214 -62t79 -168q0 -70 -37.5 -113.5t-114.5 -62.5q79 -18 119.5 -64t40.5 -116q0 -105 -87.5 -172.5t-225.5 -67.5 q-128 0 -202.5 57t-74.5 154v17l168 -1q2 -50 33 -79t84 -29q58 0 91.5 32t33.5 87q0 60 -38 85.5t-136 25.5h-68v133h70q96 0 134 25t38 85q0 54 -33 85.5t-90 31.5q-54 0 -86.5 -29.5t-32.5 -79.5h-172z" />
<glyph unicode="&#xbf;" horiz-adv-x="1014" d="M717 1141v-211q0 -79 -72 -158q-19 -21 -29 -33q-136 -161 -173 -229t-37 -127q0 -94 63.5 -150.5t169.5 -56.5q50 0 118.5 12.5t162.5 38.5v-215q-88 -17 -165.5 -26t-146.5 -9q-244 0 -378 97.5t-134 275.5q0 102 47.5 188.5t163.5 192.5q23 21 63 55q124 106 124 187 v168h223zM727 1475v-250h-238v250h238z" />
<glyph unicode="&#xc0;" horiz-adv-x="1436" d="M6 0l535 1475h372l514 -1475h-321l-105 317h-583l-115 -317h-297zM498 559h426l-203 625zM436 1972h258l197 -369h-142z" />
<glyph unicode="&#xc1;" horiz-adv-x="1436" d="M6 0l535 1475h372l514 -1475h-321l-105 317h-583l-115 -317h-297zM498 559h426l-203 625zM1022 1972l-313 -369h-142l197 369h258z" />
<glyph unicode="&#xc2;" horiz-adv-x="1436" d="M6 0l535 1475h372l514 -1475h-321l-105 317h-583l-115 -317h-297zM498 559h426l-203 625zM414 1603l196 369h238l196 -369h-141l-174 217l-176 -217h-139z" />
<glyph unicode="&#xc3;" horiz-adv-x="1436" d="M6 0l535 1475h372l514 -1475h-321l-105 317h-583l-115 -317h-297zM498 559h426l-203 625zM1046 1921q-26 -123 -77.5 -181.5t-130.5 -58.5q-21 0 -39 2.5t-35 7.5l-89 27q-18 5 -34.5 7.5t-30.5 2.5q-34 0 -55 -19.5t-33 -62.5h-110q24 124 74 182t130 58q20 0 41.5 -3.5 t45.5 -11.5l92 -24q12 -4 25.5 -6t29.5 -2q32 0 53.5 20.5t32.5 61.5h110z" />
<glyph unicode="&#xc4;" horiz-adv-x="1436" d="M6 0l535 1475h372l514 -1475h-321l-105 317h-583l-115 -317h-297zM498 559h426l-203 625zM790 1663v243h226v-243h-226zM442 1663v243h226v-243h-226z" />
<glyph unicode="&#xc5;" horiz-adv-x="1436" d="M610 1714q0 -51 33 -84t84 -33q49 0 83 34t34 83q0 48 -34.5 82.5t-82.5 34.5q-49 0 -83 -34t-34 -83zM6 0l535 1475l98 -2v4q-80 23 -125 85.5t-45 151.5q0 108 75.5 183t182.5 75t182.5 -75.5t75.5 -182.5q0 -91 -45.5 -153.5t-126.5 -83.5v-4l100 2l514 -1475h-321 l-105 317h-583l-115 -317h-297zM498 559h426l-203 625z" />
<glyph unicode="&#xc6;" horiz-adv-x="1972" d="M571 557h430l-92 684zM1907 0h-832l-41 322h-581l-162 -322h-309l804 1475h1100v-242h-676l52 -361h581v-235h-551l51 -393h564v-244z" />
<glyph unicode="&#xc7;" horiz-adv-x="1427" d="M1358 442q-16 -228 -170 -347.5t-432 -119.5q-330 0 -500 192t-170 564q0 371 175 569.5t501 198.5q266 0 421.5 -119.5t166.5 -330.5h-291q-5 106 -82 169.5t-203 63.5q-184 0 -277.5 -137.5t-93.5 -407.5q0 -278 92 -412.5t281 -134.5q122 0 199.5 69t85.5 183h297z M467 -438v129q81 -21 146 -32t110 -11q53 0 78 17.5t25 55.5t-28 54t-93 16q-23 0 -35 -0.5t-22 -1.5v211h100v-90h14q119 0 178.5 -47.5t59.5 -143.5q0 -100 -66.5 -150t-199.5 -50q-52 0 -120 11t-147 32z" />
<glyph unicode="&#xc8;" horiz-adv-x="1229" d="M143 0v1475h979v-244h-659v-348h618v-240h-618v-397h682v-246h-1002zM334 1972h258l197 -369h-142z" />
<glyph unicode="&#xc9;" horiz-adv-x="1229" d="M143 0v1475h979v-244h-659v-348h618v-240h-618v-397h682v-246h-1002zM920 1972l-313 -369h-142l197 369h258z" />
<glyph unicode="&#xca;" horiz-adv-x="1229" d="M143 0v1475h979v-244h-659v-348h618v-240h-618v-397h682v-246h-1002zM312 1603l196 369h238l196 -369h-141l-174 217l-176 -217h-139z" />
<glyph unicode="&#xcb;" horiz-adv-x="1229" d="M143 0v1475h979v-244h-659v-348h618v-240h-618v-397h682v-246h-1002zM688 1663v243h226v-243h-226zM340 1663v243h226v-243h-226z" />
<glyph unicode="&#xcc;" horiz-adv-x="596" d="M141 0v1475h314v-1475h-314zM6 1972h258l197 -369h-142z" />
<glyph unicode="&#xcd;" horiz-adv-x="596" d="M141 0v1475h314v-1475h-314zM592 1972l-313 -369h-142l197 369h258z" />
<glyph unicode="&#xce;" horiz-adv-x="596" d="M141 0v1475h314v-1475h-314zM-16 1603l196 369h238l196 -369h-141l-174 217l-176 -217h-139z" />
<glyph unicode="&#xcf;" horiz-adv-x="596" d="M141 0v1475h314v-1475h-314zM360 1663v243h226v-243h-226zM12 1663v243h226v-243h-226z" />
<glyph unicode="&#xd0;" horiz-adv-x="1501" d="M473 244h160q227 0 333.5 118t106.5 371q0 259 -106 379.5t-334 120.5h-160v-375h291v-180h-291v-434zM160 0v678h-160v180h160v617h461q185 0 297 -29t206 -94q137 -95 207 -251.5t70 -365.5q0 -362 -197.5 -548.5t-582.5 -186.5h-461z" />
<glyph unicode="&#xd1;" horiz-adv-x="1575" d="M141 0v1475h455l555 -1186v1186h283v-1475h-437l-573 1221v-1221h-283zM1128 1921q-26 -123 -77.5 -181.5t-130.5 -58.5q-21 0 -39 2.5t-35 7.5l-89 27q-18 5 -34.5 7.5t-30.5 2.5q-34 0 -55 -19.5t-33 -62.5h-110q24 124 74 182t130 58q20 0 41.5 -3.5t45.5 -11.5 l92 -24q12 -4 25.5 -6t29.5 -2q32 0 53.5 20.5t32.5 61.5h110z" />
<glyph unicode="&#xd2;" horiz-adv-x="1597" d="M424 743q0 -269 95 -408.5t278 -139.5q184 0 279 139.5t95 408.5q0 264 -96 402.5t-278 138.5q-181 0 -277 -139t-96 -402zM94 745q0 349 189.5 550.5t515.5 201.5q325 0 513.5 -201.5t188.5 -550.5q0 -361 -186 -565.5t-516 -204.5q-331 0 -518 204t-187 566zM506 1972 h258l197 -369h-142z" />
<glyph unicode="&#xd3;" horiz-adv-x="1597" d="M424 743q0 -269 95 -408.5t278 -139.5q184 0 279 139.5t95 408.5q0 264 -96 402.5t-278 138.5q-181 0 -277 -139t-96 -402zM94 745q0 349 189.5 550.5t515.5 201.5q325 0 513.5 -201.5t188.5 -550.5q0 -361 -186 -565.5t-516 -204.5q-331 0 -518 204t-187 566zM1092 1972 l-313 -369h-142l197 369h258z" />
<glyph unicode="&#xd4;" horiz-adv-x="1597" d="M424 743q0 -269 95 -408.5t278 -139.5q184 0 279 139.5t95 408.5q0 264 -96 402.5t-278 138.5q-181 0 -277 -139t-96 -402zM94 745q0 349 189.5 550.5t515.5 201.5q325 0 513.5 -201.5t188.5 -550.5q0 -361 -186 -565.5t-516 -204.5q-331 0 -518 204t-187 566zM484 1603 l196 369h238l196 -369h-141l-174 217l-176 -217h-139z" />
<glyph unicode="&#xd5;" horiz-adv-x="1597" d="M424 743q0 -269 95 -408.5t278 -139.5q184 0 279 139.5t95 408.5q0 264 -96 402.5t-278 138.5q-181 0 -277 -139t-96 -402zM94 745q0 349 189.5 550.5t515.5 201.5q325 0 513.5 -201.5t188.5 -550.5q0 -361 -186 -565.5t-516 -204.5q-331 0 -518 204t-187 566zM1116 1921 q-26 -123 -77.5 -181.5t-130.5 -58.5q-21 0 -39 2.5t-35 7.5l-89 27q-18 5 -34.5 7.5t-30.5 2.5q-34 0 -55 -19.5t-33 -62.5h-110q24 124 74 182t130 58q20 0 41.5 -3.5t45.5 -11.5l92 -24q12 -4 25.5 -6t29.5 -2q32 0 53.5 20.5t32.5 61.5h110z" />
<glyph unicode="&#xd6;" horiz-adv-x="1597" d="M424 743q0 -269 95 -408.5t278 -139.5q184 0 279 139.5t95 408.5q0 264 -96 402.5t-278 138.5q-181 0 -277 -139t-96 -402zM94 745q0 349 189.5 550.5t515.5 201.5q325 0 513.5 -201.5t188.5 -550.5q0 -361 -186 -565.5t-516 -204.5q-331 0 -518 204t-187 566zM860 1663 v243h226v-243h-226zM512 1663v243h226v-243h-226z" />
<glyph unicode="&#xd7;" horiz-adv-x="1706" d="M416 1202l450 -450l451 450l141 -139l-450 -453l450 -450l-141 -140l-451 451l-450 -451l-140 140l451 450l-451 453z" />
<glyph unicode="&#xd8;" horiz-adv-x="1597" d="M461 442l626 682q-51 84 -119.5 123t-164.5 39q-186 0 -284.5 -141.5t-98.5 -409.5q0 -77 10 -149.5t31 -143.5zM1145 981l-617 -670q55 -61 121.5 -89.5t151.5 -28.5q179 0 278 142t99 400q0 58 -8.5 119t-24.5 127zM252 215q-79 106 -118.5 239.5t-39.5 293.5 q0 350 187 549.5t514 199.5q156 0 278.5 -42.5t208.5 -127.5l186 209l99 -96l-193 -217q63 -91 95 -214t32 -270q0 -355 -189 -559.5t-517 -204.5q-134 0 -244 35t-201 107l-203 -219l-98 96z" />
<glyph unicode="&#xd9;" horiz-adv-x="1542" d="M139 1475h314v-930q0 -164 81.5 -245t247.5 -81q165 0 242.5 82.5t77.5 257.5v916h303v-908q0 -298 -156.5 -444t-476.5 -146q-323 0 -478 144.5t-155 445.5v908zM479 1972h258l197 -369h-142z" />
<glyph unicode="&#xda;" horiz-adv-x="1542" d="M139 1475h314v-930q0 -164 81.5 -245t247.5 -81q165 0 242.5 82.5t77.5 257.5v916h303v-908q0 -298 -156.5 -444t-476.5 -146q-323 0 -478 144.5t-155 445.5v908zM1065 1972l-313 -369h-142l197 369h258z" />
<glyph unicode="&#xdb;" horiz-adv-x="1542" d="M139 1475h314v-930q0 -164 81.5 -245t247.5 -81q165 0 242.5 82.5t77.5 257.5v916h303v-908q0 -298 -156.5 -444t-476.5 -146q-323 0 -478 144.5t-155 445.5v908zM457 1603l196 369h238l196 -369h-141l-174 217l-176 -217h-139z" />
<glyph unicode="&#xdc;" horiz-adv-x="1542" d="M139 1475h314v-930q0 -164 81.5 -245t247.5 -81q165 0 242.5 82.5t77.5 257.5v916h303v-908q0 -298 -156.5 -444t-476.5 -146q-323 0 -478 144.5t-155 445.5v908zM833 1663v243h226v-243h-226zM485 1663v243h226v-243h-226z" />
<glyph unicode="&#xdd;" horiz-adv-x="1350" d="M518 0v545l-498 930h332l338 -631l305 631h328l-489 -930v-545h-316zM969 1972l-313 -369h-142l197 369h258z" />
<glyph unicode="&#xde;" horiz-adv-x="1235" d="M440 555h150q147 0 209.5 48.5t62.5 160.5q0 109 -62.5 157t-209.5 48h-150v-414zM141 0v1475h299v-261h138q314 0 455 -106t141 -342q0 -226 -130 -341.5t-385 -115.5h-219v-309h-299z" />
<glyph unicode="&#xdf;" horiz-adv-x="1348" d="M133 0v1077q0 211 120.5 314.5t362.5 103.5q220 0 348 -82.5t128 -222.5q0 -56 -25 -100t-80 -86q-12 -10 -35 -28q-102 -77 -102 -124q0 -63 161 -153q28 -16 43 -25q140 -78 182 -145.5t42 -180.5q0 -190 -102.5 -283.5t-313.5 -93.5q-168 0 -249 80.5t-81 247.5h259 q0 -61 27 -94t77 -33q49 0 74.5 37t25.5 108q0 121 -134 196l-9 5l-21 12q-266 152 -266 285q0 56 21.5 99t103.5 120q7 6 19 18q90 83 90 136q0 56 -45.5 89.5t-122.5 33.5q-97 0 -153 -69.5t-56 -188.5v-1053h-289z" />
<glyph unicode="&#xe0;" horiz-adv-x="1128" d="M709 493l-33 1q-144 0 -220.5 -47.5t-76.5 -135.5q0 -59 40.5 -97t102.5 -38q91 0 140 67.5t49 194.5q0 21 -0.5 32.5t-1.5 22.5zM754 0q-1 4 -2 11q-9 77 -11 128q-66 -87 -145.5 -129.5t-179.5 -42.5q-145 0 -236.5 91t-91.5 235q0 180 141.5 274.5t413.5 94.5 q11 0 33.5 -1.5t34.5 -1.5q0 8 1 22t1 21q0 95 -34.5 139t-109.5 44q-67 0 -101 -35t-40 -111l-297 1q2 158 110.5 236.5t327.5 78.5q109 0 194.5 -28t139.5 -81q51 -49 71.5 -112.5t20.5 -206.5v-314q0 -37 4 -108.5t12 -204.5h-257zM272 1526h258l197 -369h-142z" />
<glyph unicode="&#xe1;" horiz-adv-x="1128" d="M709 493l-33 1q-144 0 -220.5 -47.5t-76.5 -135.5q0 -59 40.5 -97t102.5 -38q91 0 140 67.5t49 194.5q0 21 -0.5 32.5t-1.5 22.5zM754 0q-1 4 -2 11q-9 77 -11 128q-66 -87 -145.5 -129.5t-179.5 -42.5q-145 0 -236.5 91t-91.5 235q0 180 141.5 274.5t413.5 94.5 q11 0 33.5 -1.5t34.5 -1.5q0 8 1 22t1 21q0 95 -34.5 139t-109.5 44q-67 0 -101 -35t-40 -111l-297 1q2 158 110.5 236.5t327.5 78.5q109 0 194.5 -28t139.5 -81q51 -49 71.5 -112.5t20.5 -206.5v-314q0 -37 4 -108.5t12 -204.5h-257zM858 1526l-313 -369h-142l197 369h258z " />
<glyph unicode="&#xe2;" horiz-adv-x="1128" d="M709 493l-33 1q-144 0 -220.5 -47.5t-76.5 -135.5q0 -59 40.5 -97t102.5 -38q91 0 140 67.5t49 194.5q0 21 -0.5 32.5t-1.5 22.5zM754 0q-1 4 -2 11q-9 77 -11 128q-66 -87 -145.5 -129.5t-179.5 -42.5q-145 0 -236.5 91t-91.5 235q0 180 141.5 274.5t413.5 94.5 q11 0 33.5 -1.5t34.5 -1.5q0 8 1 22t1 21q0 95 -34.5 139t-109.5 44q-67 0 -101 -35t-40 -111l-297 1q2 158 110.5 236.5t327.5 78.5q109 0 194.5 -28t139.5 -81q51 -49 71.5 -112.5t20.5 -206.5v-314q0 -37 4 -108.5t12 -204.5h-257zM250 1157l196 369h238l196 -369h-141 l-174 217l-176 -217h-139z" />
<glyph unicode="&#xe3;" horiz-adv-x="1128" d="M709 493l-33 1q-144 0 -220.5 -47.5t-76.5 -135.5q0 -59 40.5 -97t102.5 -38q91 0 140 67.5t49 194.5q0 21 -0.5 32.5t-1.5 22.5zM754 0q-1 4 -2 11q-9 77 -11 128q-66 -87 -145.5 -129.5t-179.5 -42.5q-145 0 -236.5 91t-91.5 235q0 180 141.5 274.5t413.5 94.5 q11 0 33.5 -1.5t34.5 -1.5q0 8 1 22t1 21q0 95 -34.5 139t-109.5 44q-67 0 -101 -35t-40 -111l-297 1q2 158 110.5 236.5t327.5 78.5q109 0 194.5 -28t139.5 -81q51 -49 71.5 -112.5t20.5 -206.5v-314q0 -37 4 -108.5t12 -204.5h-257zM882 1475q-26 -123 -77.5 -181.5 t-130.5 -58.5q-21 0 -39 2.5t-35 7.5l-89 27q-18 5 -34.5 7.5t-30.5 2.5q-34 0 -55 -19.5t-33 -62.5h-110q24 124 74 182t130 58q20 0 41.5 -3.5t45.5 -11.5l92 -24q12 -4 25.5 -6t29.5 -2q32 0 53.5 20.5t32.5 61.5h110z" />
<glyph unicode="&#xe4;" horiz-adv-x="1128" d="M709 493l-33 1q-144 0 -220.5 -47.5t-76.5 -135.5q0 -59 40.5 -97t102.5 -38q91 0 140 67.5t49 194.5q0 21 -0.5 32.5t-1.5 22.5zM754 0q-1 4 -2 11q-9 77 -11 128q-66 -87 -145.5 -129.5t-179.5 -42.5q-145 0 -236.5 91t-91.5 235q0 180 141.5 274.5t413.5 94.5 q11 0 33.5 -1.5t34.5 -1.5q0 8 1 22t1 21q0 95 -34.5 139t-109.5 44q-67 0 -101 -35t-40 -111l-297 1q2 158 110.5 236.5t327.5 78.5q109 0 194.5 -28t139.5 -81q51 -49 71.5 -112.5t20.5 -206.5v-314q0 -37 4 -108.5t12 -204.5h-257zM626 1217v243h226v-243h-226zM278 1217 v243h226v-243h-226z" />
<glyph unicode="&#xe5;" horiz-adv-x="1128" d="M461 1380q0 -49 34 -83.5t83 -34.5t83.5 34.5t34.5 83.5q0 48 -35.5 82.5t-82.5 34.5q-50 0 -83.5 -33.5t-33.5 -83.5zM322 1380q0 108 74 182t182 74q107 0 182.5 -74.5t75.5 -181.5t-75.5 -182.5t-182.5 -75.5q-109 0 -182.5 74.5t-73.5 183.5zM709 493l-33 1 q-144 0 -220.5 -47.5t-76.5 -135.5q0 -59 40.5 -97t102.5 -38q91 0 140 67.5t49 194.5q0 21 -0.5 32.5t-1.5 22.5zM754 0q-1 4 -2 11q-9 77 -11 128q-66 -87 -145.5 -129.5t-179.5 -42.5q-145 0 -236.5 91t-91.5 235q0 180 141.5 274.5t413.5 94.5q11 0 33.5 -1.5t34.5 -1.5 q0 8 1 22t1 21q0 95 -34.5 139t-109.5 44q-67 0 -101 -35t-40 -111l-297 1q2 158 110.5 236.5t327.5 78.5q109 0 194.5 -28t139.5 -81q51 -49 71.5 -112.5t20.5 -206.5v-314q0 -37 4 -108.5t12 -204.5h-257z" />
<glyph unicode="&#xe6;" horiz-adv-x="1718" d="M989 641h352q-1 110 -45.5 166.5t-130.5 56.5q-77 0 -123.5 -59t-52.5 -164zM702 473h-34q-144 0 -220.5 -46.5t-76.5 -133.5q0 -59 41 -97t104 -38q91 0 140 67t49 193q0 21 -0.5 32.5t-2.5 22.5zM1614 322q-17 -165 -132 -255t-308 -90q-121 0 -211.5 40t-165.5 126 q-87 -88 -183.5 -132t-203.5 -44q-144 0 -236 86t-92 219q0 185 139.5 277t419.5 92q10 0 31 -1t32 -1q2 11 2.5 23t0.5 34q0 99 -34.5 144t-109.5 45q-67 0 -101 -35t-40 -111l-297 1q2 155 109.5 235t314.5 80q118 0 197.5 -29.5t127.5 -91.5q57 60 135 90.5t177 30.5 q217 0 338 -139t121 -390q0 -9 -1.5 -26.5t-1.5 -26.5h-663v-10q0 -143 47.5 -215t142.5 -72q74 0 118 36t61 110h266z" />
<glyph unicode="&#xe7;" horiz-adv-x="1020" d="M961 389q0 -196 -110.5 -305t-309.5 -109q-213 0 -337 148.5t-124 404.5q0 245 128 385t353 140q182 0 289 -100.5t110 -274.5h-282q-10 98 -42.5 141t-96.5 43q-76 0 -113 -80.5t-37 -246.5q0 -188 36.5 -268.5t119.5 -80.5q61 0 94.5 51t38.5 152h283zM247 -438v129 q81 -21 146 -32t110 -11q53 0 78 17.5t25 55.5t-28 54t-93 16q-23 0 -35 -0.5t-22 -1.5v211h100v-90h14q119 0 178.5 -47.5t59.5 -143.5q0 -100 -66.5 -150t-199.5 -50q-52 0 -120 11t-147 32z" />
<glyph unicode="&#xe8;" horiz-adv-x="1120" d="M381 641h352q-2 112 -45.5 167.5t-128.5 55.5q-77 0 -124.5 -59t-53.5 -164zM1006 322q-13 -163 -129.5 -254t-311.5 -91q-227 0 -353 139t-126 388q0 262 129 405.5t365 143.5q219 0 338.5 -139.5t119.5 -395.5q0 -28 -0.5 -42t-1.5 -25l-663 -1q2 -138 49 -206t141 -68 q74 0 117.5 36t60.5 110h265zM268 1526h258l197 -369h-142z" />
<glyph unicode="&#xe9;" horiz-adv-x="1120" d="M381 641h352q-2 112 -45.5 167.5t-128.5 55.5q-77 0 -124.5 -59t-53.5 -164zM1006 322q-13 -163 -129.5 -254t-311.5 -91q-227 0 -353 139t-126 388q0 262 129 405.5t365 143.5q219 0 338.5 -139.5t119.5 -395.5q0 -28 -0.5 -42t-1.5 -25l-663 -1q2 -138 49 -206t141 -68 q74 0 117.5 36t60.5 110h265zM854 1526l-313 -369h-142l197 369h258z" />
<glyph unicode="&#xea;" horiz-adv-x="1120" d="M381 641h352q-2 112 -45.5 167.5t-128.5 55.5q-77 0 -124.5 -59t-53.5 -164zM1006 322q-13 -163 -129.5 -254t-311.5 -91q-227 0 -353 139t-126 388q0 262 129 405.5t365 143.5q219 0 338.5 -139.5t119.5 -395.5q0 -28 -0.5 -42t-1.5 -25l-663 -1q2 -138 49 -206t141 -68 q74 0 117.5 36t60.5 110h265zM246 1157l196 369h238l196 -369h-141l-174 217l-176 -217h-139z" />
<glyph unicode="&#xeb;" horiz-adv-x="1120" d="M381 641h352q-2 112 -45.5 167.5t-128.5 55.5q-77 0 -124.5 -59t-53.5 -164zM1006 322q-13 -163 -129.5 -254t-311.5 -91q-227 0 -353 139t-126 388q0 262 129 405.5t365 143.5q219 0 338.5 -139.5t119.5 -395.5q0 -28 -0.5 -42t-1.5 -25l-663 -1q2 -138 49 -206t141 -68 q74 0 117.5 36t60.5 110h265zM622 1217v243h226v-243h-226zM274 1217v243h226v-243h-226z" />
<glyph unicode="&#xec;" horiz-adv-x="567" d="M135 1028h299v-1028h-299v1028zM-8 1526h258l197 -369h-142z" />
<glyph unicode="&#xed;" horiz-adv-x="567" d="M135 1028h299v-1028h-299v1028zM578 1526l-313 -369h-142l197 369h258z" />
<glyph unicode="&#xee;" horiz-adv-x="567" d="M135 1028h299v-1028h-299v1028zM-30 1157l196 369h238l196 -369h-141l-174 217l-176 -217h-139z" />
<glyph unicode="&#xef;" horiz-adv-x="567" d="M135 1028h299v-1028h-299v1028zM346 1217v243h226v-243h-226zM-2 1217v243h226v-243h-226z" />
<glyph unicode="&#xf0;" horiz-adv-x="1235" d="M389 463q0 -143 57.5 -216t169.5 -73q113 0 170.5 73t57.5 216q0 144 -57.5 217.5t-170.5 73.5q-112 0 -169.5 -73.5t-57.5 -217.5zM793 862q-36 64 -90.5 126t-129.5 124l-294 -121l-50 107l246 104q-46 29 -109 68.5t-71 44.5l133 160q62 -31 134.5 -73t162.5 -102 l289 121l51 -108l-236 -101q162 -147 242 -325.5t80 -388.5q0 -249 -140.5 -386t-394.5 -137q-239 0 -384.5 131.5t-145.5 348.5q0 209 135 343t342 134q61 0 117.5 -17t112.5 -53z" />
<glyph unicode="&#xf1;" horiz-adv-x="1221" d="M139 0v831q0 44 -2.5 92t-7.5 105h285l6 -154q58 93 137.5 136t194.5 43q170 0 252.5 -96.5t82.5 -294.5v-662h-294v621q0 115 -39.5 165t-128.5 50q-86 0 -138.5 -55.5t-52.5 -147.5v-633h-295zM927 1475q-26 -123 -77.5 -181.5t-130.5 -58.5q-21 0 -39 2.5t-35 7.5 l-89 27q-18 5 -34.5 7.5t-30.5 2.5q-34 0 -55 -19.5t-33 -62.5h-110q24 124 74 182t130 58q20 0 41.5 -3.5t45.5 -11.5l92 -24q12 -4 25.5 -6t29.5 -2q32 0 53.5 20.5t32.5 61.5h110z" />
<glyph unicode="&#xf2;" horiz-adv-x="1235" d="M389 516q0 -167 58 -253.5t169 -86.5q112 0 170 86.5t58 253.5q0 168 -58 254t-170 86q-111 0 -169 -86t-58 -254zM86 514q0 244 145 391.5t385 147.5q242 0 387.5 -147t145.5 -392t-145.5 -392t-387.5 -147q-240 0 -385 147.5t-145 391.5zM325 1526h258l197 -369h-142z " />
<glyph unicode="&#xf3;" horiz-adv-x="1235" d="M389 516q0 -167 58 -253.5t169 -86.5q112 0 170 86.5t58 253.5q0 168 -58 254t-170 86q-111 0 -169 -86t-58 -254zM86 514q0 244 145 391.5t385 147.5q242 0 387.5 -147t145.5 -392t-145.5 -392t-387.5 -147q-240 0 -385 147.5t-145 391.5zM911 1526l-313 -369h-142 l197 369h258z" />
<glyph unicode="&#xf4;" horiz-adv-x="1235" d="M389 516q0 -167 58 -253.5t169 -86.5q112 0 170 86.5t58 253.5q0 168 -58 254t-170 86q-111 0 -169 -86t-58 -254zM86 514q0 244 145 391.5t385 147.5q242 0 387.5 -147t145.5 -392t-145.5 -392t-387.5 -147q-240 0 -385 147.5t-145 391.5zM303 1157l196 369h238 l196 -369h-141l-174 217l-176 -217h-139z" />
<glyph unicode="&#xf5;" horiz-adv-x="1235" d="M389 516q0 -167 58 -253.5t169 -86.5q112 0 170 86.5t58 253.5q0 168 -58 254t-170 86q-111 0 -169 -86t-58 -254zM86 514q0 244 145 391.5t385 147.5q242 0 387.5 -147t145.5 -392t-145.5 -392t-387.5 -147q-240 0 -385 147.5t-145 391.5zM935 1475 q-26 -123 -77.5 -181.5t-130.5 -58.5q-21 0 -39 2.5t-35 7.5l-89 27q-18 5 -34.5 7.5t-30.5 2.5q-34 0 -55 -19.5t-33 -62.5h-110q24 124 74 182t130 58q20 0 41.5 -3.5t45.5 -11.5l92 -24q12 -4 25.5 -6t29.5 -2q32 0 53.5 20.5t32.5 61.5h110z" />
<glyph unicode="&#xf6;" horiz-adv-x="1235" d="M389 516q0 -167 58 -253.5t169 -86.5q112 0 170 86.5t58 253.5q0 168 -58 254t-170 86q-111 0 -169 -86t-58 -254zM86 514q0 244 145 391.5t385 147.5q242 0 387.5 -147t145.5 -392t-145.5 -392t-387.5 -147q-240 0 -385 147.5t-145 391.5zM679 1217v243h226v-243h-226z M331 1217v243h226v-243h-226z" />
<glyph unicode="&#xf7;" horiz-adv-x="1706" d="M854 369q62 0 107 -45t45 -107q0 -61 -45 -105t-107 -44q-63 0 -107.5 43t-44.5 106t44.5 107.5t107.5 44.5zM254 711h1198v-199h-1198v199zM854 1155q62 0 107 -44.5t45 -106.5q0 -63 -44.5 -107.5t-107.5 -44.5t-107.5 44.5t-44.5 107.5t44.5 107t107.5 44z" />
<glyph unicode="&#xf8;" horiz-adv-x="1235" d="M266 94l-166 -172l-77 82l165 172q-50 59 -76 143t-26 191q0 248 145 395.5t387 147.5q92 0 172.5 -24.5t153.5 -74.5l158 164l78 -82l-152 -159q60 -70 90.5 -162.5t30.5 -202.5q0 -242 -145 -388.5t-386 -146.5q-104 0 -192.5 29.5t-159.5 87.5zM400 390l378 390 q-35 39 -75 57.5t-87 18.5q-108 0 -167.5 -84t-59.5 -237q0 -21 2.5 -54.5t8.5 -90.5zM829 682l-391 -406q32 -46 81.5 -72t107.5 -26q107 0 163 90t56 262q0 46 -4 83t-13 69z" />
<glyph unicode="&#xf9;" horiz-adv-x="1221" d="M1085 1028v-829q0 -55 2.5 -104.5t6.5 -94.5h-283l-8 154q-58 -93 -137.5 -136t-194.5 -43q-171 0 -253.5 96.5t-82.5 295.5v661h297v-618q0 -116 39.5 -165.5t128.5 -49.5q86 0 137 54t51 146v633h297zM317 1526h258l197 -369h-142z" />
<glyph unicode="&#xfa;" horiz-adv-x="1221" d="M1085 1028v-829q0 -55 2.5 -104.5t6.5 -94.5h-283l-8 154q-58 -93 -137.5 -136t-194.5 -43q-171 0 -253.5 96.5t-82.5 295.5v661h297v-618q0 -116 39.5 -165.5t128.5 -49.5q86 0 137 54t51 146v633h297zM903 1526l-313 -369h-142l197 369h258z" />
<glyph unicode="&#xfb;" horiz-adv-x="1221" d="M1085 1028v-829q0 -55 2.5 -104.5t6.5 -94.5h-283l-8 154q-58 -93 -137.5 -136t-194.5 -43q-171 0 -253.5 96.5t-82.5 295.5v661h297v-618q0 -116 39.5 -165.5t128.5 -49.5q86 0 137 54t51 146v633h297zM295 1157l196 369h238l196 -369h-141l-174 217l-176 -217h-139z " />
<glyph unicode="&#xfc;" horiz-adv-x="1221" d="M1085 1028v-829q0 -55 2.5 -104.5t6.5 -94.5h-283l-8 154q-58 -93 -137.5 -136t-194.5 -43q-171 0 -253.5 96.5t-82.5 295.5v661h297v-618q0 -116 39.5 -165.5t128.5 -49.5q86 0 137 54t51 146v633h297zM671 1217v243h226v-243h-226zM323 1217v243h226v-243h-226z" />
<glyph unicode="&#xfd;" horiz-adv-x="1126" d="M285 -389l127 389l-389 1028h329l223 -672l226 672h299l-393 -1028l-119 -389h-303zM856 1526l-313 -369h-142l197 369h258z" />
<glyph unicode="&#xfe;" horiz-adv-x="1245" d="M854 516q0 160 -55 248t-154 88q-100 0 -159.5 -90.5t-59.5 -245.5q0 -154 59.5 -245t159.5 -91q99 0 154 88.5t55 247.5zM135 1475h297v-594q51 83 128 125.5t177 42.5q187 0 303.5 -147t116.5 -388q0 -242 -114 -387t-302 -145q-101 0 -177.5 39t-131.5 120v-530h-297 v1864z" />
<glyph unicode="&#xff;" horiz-adv-x="1126" d="M285 -389l127 389l-389 1028h329l223 -672l226 672h299l-393 -1028l-119 -389h-303zM624 1217v243h226v-243h-226zM276 1217v243h226v-243h-226z" />
<glyph unicode="&#x106;" horiz-adv-x="1427" d="M1358 442q-16 -228 -170 -347.5t-432 -119.5q-330 0 -500 192t-170 564q0 371 175 569.5t501 198.5q266 0 421.5 -119.5t166.5 -330.5h-291q-5 106 -82 169.5t-203 63.5q-184 0 -277.5 -137.5t-93.5 -407.5q0 -278 92 -412.5t281 -134.5q122 0 199.5 69t85.5 183h297z M1041 1972l-313 -369h-142l197 369h258z" />
<glyph unicode="&#x107;" horiz-adv-x="1020" d="M961 389q0 -196 -110.5 -305t-309.5 -109q-213 0 -337 148.5t-124 404.5q0 245 128 385t353 140q182 0 289 -100.5t110 -274.5h-282q-10 98 -42.5 141t-96.5 43q-76 0 -113 -80.5t-37 -246.5q0 -188 36.5 -268.5t119.5 -80.5q61 0 94.5 51t38.5 152h283zM821 1526 l-313 -369h-142l197 369h258z" />
<glyph unicode="&#x10c;" horiz-adv-x="1427" d="M1358 442q-16 -228 -170 -347.5t-432 -119.5q-330 0 -500 192t-170 564q0 371 175 569.5t501 198.5q266 0 421.5 -119.5t166.5 -330.5h-291q-5 106 -82 169.5t-203 63.5q-184 0 -277.5 -137.5t-93.5 -407.5q0 -278 92 -412.5t281 -134.5q122 0 199.5 69t85.5 183h297z M433 1972h139l176 -217l174 217h141l-196 -369h-238z" />
<glyph unicode="&#x10d;" horiz-adv-x="1020" d="M961 389q0 -196 -110.5 -305t-309.5 -109q-213 0 -337 148.5t-124 404.5q0 245 128 385t353 140q182 0 289 -100.5t110 -274.5h-282q-10 98 -42.5 141t-96.5 43q-76 0 -113 -80.5t-37 -246.5q0 -188 36.5 -268.5t119.5 -80.5q61 0 94.5 51t38.5 152h283zM213 1526h139 l176 -217l174 217h141l-196 -369h-238z" />
<glyph unicode="&#x111;" horiz-adv-x="1253" d="M391 500q0 -150 56.5 -236t152.5 -86q99 0 159 88.5t60 233.5t-60 233t-159 88q-96 0 -152.5 -86t-56.5 -235zM827 0l-10 147q-55 -83 -133 -125t-176 -42q-184 0 -302 145.5t-118 376.5t115.5 373.5t300.5 142.5q102 0 177.5 -39t131.5 -121v303h-301v146h301v168h297 v-168h182v-146h-182v-954q0 -85 2.5 -128t7.5 -79h-293z" />
<glyph unicode="&#x11e;" horiz-adv-x="1577" d="M1446 786v-690q-122 -61 -262 -91t-310 -30q-374 0 -578 193.5t-204 548.5q0 367 205 574.5t569 207.5q269 0 426.5 -123t157.5 -329v-27h-297q-6 136 -84 207t-221 71q-201 0 -317.5 -153t-116.5 -418q0 -260 122.5 -394t360.5 -134q62 0 122.5 7.5t118.5 22.5l1 322 h-281v235h588zM479 1939h123q6 -77 51 -113.5t135 -36.5t134 36t50 114h123q-11 -157 -85 -230t-222 -73q-147 0 -222.5 74t-86.5 229z" />
<glyph unicode="&#x11f;" horiz-adv-x="1223" d="M383 537q0 -142 53.5 -221.5t149.5 -79.5q97 0 154 80.5t57 220.5t-57 221.5t-154 81.5q-96 0 -149.5 -79.5t-53.5 -223.5zM1096 1028q-4 -31 -6.5 -70.5t-2.5 -93.5v-803q0 -246 -120.5 -356.5t-388.5 -110.5q-219 0 -335 86.5t-116 247.5h285q6 -65 49 -101t114 -36 q117 0 165 58t48 200v121q-56 -75 -127.5 -110t-166.5 -35q-183 0 -293.5 139.5t-110.5 372.5q0 230 112 371t294 141q95 0 170 -40.5t129 -119.5l10 139h291zM303 1493h123q6 -77 51 -113.5t135 -36.5t134 36t50 114h123q-11 -157 -85 -230t-222 -73q-147 0 -222.5 74 t-86.5 229z" />
<glyph unicode="&#x130;" horiz-adv-x="596" d="M141 0v1475h314v-1475h-314zM182 1656v256h236v-256h-236z" />
<glyph unicode="&#x131;" horiz-adv-x="567" d="M135 1028h299v-1028h-299v1028z" />
<glyph unicode="&#x141;" horiz-adv-x="1184" d="M162 0v578l-162 -111v201l162 108v699h315v-555l330 223v-199l-330 -223v-471h664v-250h-979z" />
<glyph unicode="&#x142;" horiz-adv-x="602" d="M152 0v584l-156 -107v170l156 107v721h297v-588l157 108v-170l-157 -108v-717h-297z" />
<glyph unicode="&#x152;" horiz-adv-x="2077" d="M1018 236v1011q-48 7 -89.5 11t-72.5 4q-215 0 -321.5 -130.5t-106.5 -392.5q0 -259 106.5 -388.5t321.5 -129.5q30 0 141 12zM1978 0h-768q-60 0 -182.5 -5t-185.5 -5q-349 0 -545.5 197.5t-196.5 547.5q0 358 197 554t559 196q57 0 174 -5t178 -5h752v-242h-666v-361 h619v-235h-619v-393h684v-244z" />
<glyph unicode="&#x153;" horiz-adv-x="1862" d="M1120 641h352q-1 111 -44.5 167t-129.5 56q-77 0 -124.5 -59t-53.5 -164zM371 516q0 -166 58.5 -253t170.5 -87t169.5 86.5t57.5 253.5q0 168 -57.5 254t-169.5 86t-170.5 -86.5t-58.5 -253.5zM1747 322q-17 -165 -133 -256t-309 -91q-110 0 -190 33t-150 107 q-75 -72 -161.5 -106t-197.5 -34q-236 0 -378 147t-142 392t142 392t378 147q114 0 198 -34t163 -112q77 76 161.5 111t190.5 35q220 0 339.5 -139.5t119.5 -395.5q0 -28 -0.5 -41.5t-1.5 -25.5l-664 -1q2 -138 49 -206t142 -68q73 0 117 36t61 110h266z" />
<glyph unicode="&#x15e;" horiz-adv-x="1348" d="M84 479h309q0 -147 72.5 -221t218.5 -74q117 0 190.5 57.5t73.5 145.5q0 139 -347 257l-33 11q-11 4 -30 10q-194 64 -280 128q-62 46 -95.5 117.5t-33.5 158.5q0 199 150.5 315.5t410.5 116.5q243 0 376.5 -113t133.5 -317v-8h-274q-10 115 -75.5 175t-180.5 60 q-111 0 -176.5 -51t-65.5 -137q0 -134 364 -252l19 -6q278 -92 365.5 -184t87.5 -254q0 -206 -157.5 -322.5t-438.5 -116.5q-292 0 -438 121t-146 363v20zM393 -438v129q81 -21 146 -32t110 -11q53 0 78 17.5t25 55.5t-28 54t-93 16q-23 0 -35 -0.5t-22 -1.5v211h100v-90h14 q119 0 178.5 -47.5t59.5 -143.5q0 -100 -66.5 -150t-199.5 -50q-52 0 -120 11t-147 32z" />
<glyph unicode="&#x15f;" horiz-adv-x="1012" d="M60 309h278q3 -69 43 -102t123 -33q72 0 112.5 31t40.5 86q0 84 -190 132q-47 12 -73 19q-170 46 -242 114.5t-72 182.5q0 138 120 226t316 88q176 0 278.5 -77.5t102.5 -209.5v-8h-262q-8 60 -43.5 89.5t-99.5 29.5q-65 0 -104.5 -29t-39.5 -76q0 -72 198 -118 q46 -11 70 -17q175 -43 250.5 -114t75.5 -189q0 -154 -126.5 -256.5t-321.5 -102.5q-206 0 -318.5 86.5t-115.5 247.5zM225 -438v129q81 -21 146 -32t110 -11q53 0 78 17.5t25 55.5t-28 54t-93 16q-23 0 -35 -0.5t-22 -1.5v211h100v-90h14q119 0 178.5 -47.5t59.5 -143.5 q0 -100 -66.5 -150t-199.5 -50q-52 0 -120 11t-147 32z" />
<glyph unicode="&#x160;" horiz-adv-x="1348" d="M84 479h309q0 -147 72.5 -221t218.5 -74q117 0 190.5 57.5t73.5 145.5q0 139 -347 257l-33 11q-11 4 -30 10q-194 64 -280 128q-62 46 -95.5 117.5t-33.5 158.5q0 199 150.5 315.5t410.5 116.5q243 0 376.5 -113t133.5 -317v-8h-274q-10 115 -75.5 175t-180.5 60 q-111 0 -176.5 -51t-65.5 -137q0 -134 364 -252l19 -6q278 -92 365.5 -184t87.5 -254q0 -206 -157.5 -322.5t-438.5 -116.5q-292 0 -438 121t-146 363v20zM359 1972h139l176 -217l174 217h141l-196 -369h-238z" />
<glyph unicode="&#x161;" horiz-adv-x="1012" d="M60 309h278q3 -69 43 -102t123 -33q72 0 112.5 31t40.5 86q0 84 -190 132q-47 12 -73 19q-170 46 -242 114.5t-72 182.5q0 138 120 226t316 88q176 0 278.5 -77.5t102.5 -209.5v-8h-262q-8 60 -43.5 89.5t-99.5 29.5q-65 0 -104.5 -29t-39.5 -76q0 -72 198 -118 q46 -11 70 -17q175 -43 250.5 -114t75.5 -189q0 -154 -126.5 -256.5t-321.5 -102.5q-206 0 -318.5 86.5t-115.5 247.5zM191 1526h139l176 -217l174 217h141l-196 -369h-238z" />
<glyph unicode="&#x178;" horiz-adv-x="1350" d="M518 0v545l-498 930h332l338 -631l305 631h328l-489 -930v-545h-316zM737 1663v243h226v-243h-226zM389 1663v243h226v-243h-226z" />
<glyph unicode="&#x17d;" horiz-adv-x="1237" d="M53 0v283l766 960h-725v232h1059v-285l-758 -946h776v-244h-1118zM303 1972h139l176 -217l174 217h141l-196 -369h-238z" />
<glyph unicode="&#x17e;" horiz-adv-x="1010" d="M76 0v268l522 570h-508v190h823v-254l-514 -567h535v-207h-858zM191 1526h139l176 -217l174 217h141l-196 -369h-238z" />
<glyph unicode="&#x192;" horiz-adv-x="1133" d="M969 1483l-41 -219h-6q-27 4 -37 4q-55 0 -85 -38.5t-48 -137.5l-21 -109h148l-39 -205h-146l-137 -725q-31 -166 -114.5 -236.5t-247.5 -70.5q-35 0 -119 8h-6l43 236q14 -3 27.5 -4.5t25.5 -1.5q90 0 131 219v2l106 575h-147l39 205h145l37 205q32 165 110 235t230 70 q33 0 70.5 -3t81.5 -9z" />
<glyph unicode="&#x2c6;" d="M197 1157l196 369h238l196 -369h-141l-174 217l-176 -217h-139z" />
<glyph unicode="&#x2c7;" d="M197 1526h139l176 -217l174 217h141l-196 -369h-238z" />
<glyph unicode="&#x2d8;" d="M203 1493h123q6 -77 51 -113.5t135 -36.5t134 36t50 114h123q-11 -157 -85 -230t-222 -73q-147 0 -222.5 74t-86.5 229z" />
<glyph unicode="&#x2d9;" d="M395 1210v256h236v-256h-236z" />
<glyph unicode="&#x2da;" d="M391 1403q0 -52 34.5 -86.5t86.5 -34.5t87.5 35t35.5 86t-36 87t-87 36q-52 0 -86.5 -35.5t-34.5 -87.5zM248 1403q0 112 76.5 189t187.5 77q112 0 189 -77.5t77 -188.5q0 -112 -77 -189t-189 -77t-188 76.5t-76 189.5z" />
<glyph unicode="&#x2db;" d="M627 0q-63 -51 -95 -102.5t-32 -102.5q0 -40 20 -60t62 -20h102v-174h-106q-118 0 -178 46.5t-60 138.5q0 71 45 136t145 138h97z" />
<glyph unicode="&#x2dc;" d="M829 1475q-26 -123 -77.5 -181.5t-130.5 -58.5q-21 0 -39 2.5t-35 7.5l-89 27q-18 5 -34.5 7.5t-30.5 2.5q-34 0 -55 -19.5t-33 -62.5h-110q24 124 74 182t130 58q20 0 41.5 -3.5t45.5 -11.5l92 -24q12 -4 25.5 -6t29.5 -2q32 0 53.5 20.5t32.5 61.5h110z" />
<glyph unicode="&#x2dd;" d="M563 1157l154 369h229l-270 -369h-113zM295 1157l115 369h221l-232 -369h-104z" />
<glyph unicode="&#x3a9;" horiz-adv-x="1575" d="M1227 256h291v-256h-609v291q126 86 192 217.5t66 296.5q0 203 -101.5 319.5t-279.5 116.5q-177 0 -278.5 -116.5t-101.5 -319.5q0 -164 66 -296.5t192 -217.5v-291h-609v256h291q-126 121 -187 260t-61 303q0 313 188 501.5t500 188.5q313 0 501 -188.5t188 -501.5 q0 -164 -61 -303t-187 -260z" />
<glyph unicode="&#x3c0;" horiz-adv-x="1319" d="M1354 1092l-39 -224h-176l-154 -868h-287l152 868h-238l-151 -868h-287l152 868h-25q-55 0 -84 -31t-39 -99l-213 -1q29 199 123 277t311 78h955z" />
<glyph unicode="&#x2013;" d="M0 412v227h1024v-227h-1024z" />
<glyph unicode="&#x2014;" horiz-adv-x="2048" d="M0 412v227h2048v-227h-2048z" />
<glyph unicode="&#x2018;" horiz-adv-x="551" d="M494 1475l-148 -508h-289l224 508h213z" />
<glyph unicode="&#x2019;" horiz-adv-x="551" d="M57 967l146 508h291l-226 -508h-211z" />
<glyph unicode="&#x201a;" horiz-adv-x="551" d="M57 -231l146 507h291l-226 -507h-211z" />
<glyph unicode="&#x201c;" horiz-adv-x="952" d="M895 1475l-145 -508h-291l223 508h213zM494 1475l-148 -508h-291l226 508h213z" />
<glyph unicode="&#x201d;" horiz-adv-x="952" d="M459 967l145 508h291l-225 -508h-211zM57 967l146 508h291l-226 -508h-211z" />
<glyph unicode="&#x201e;" horiz-adv-x="952" d="M459 -231l145 507h291l-225 -507h-211zM55 -231l148 507h291l-226 -507h-213z" />
<glyph unicode="&#x2020;" horiz-adv-x="1100" d="M428 0v969h-326v196h326v310h244v-310h325v-196h-325v-969h-244z" />
<glyph unicode="&#x2021;" horiz-adv-x="1100" d="M428 0v307h-326v203h326v459h-326v196h326v310h244v-310h325v-196h-325v-459h325v-203h-325v-307h-244z" />
<glyph unicode="&#x2022;" horiz-adv-x="1208" d="M307 762q0 123 87 209t210 86q122 0 208.5 -86.5t86.5 -208.5t-87.5 -209.5t-209.5 -87.5q-123 0 -209 87t-86 210z" />
<glyph unicode="&#x2026;" horiz-adv-x="2048" d="M211 0v270h258v-270h-258zM893 0v270h258v-270h-258zM1577 0v270h258v-270h-258z" />
<glyph unicode="&#x2030;" horiz-adv-x="2726" d="M2134 350q0 -108 31 -166.5t88 -58.5q59 0 90 60.5t31 174.5q0 104 -31.5 161t-87.5 57q-58 0 -89.5 -59t-31.5 -169zM1933 348q0 183 83.5 280t238.5 97q154 0 237.5 -93.5t83.5 -264.5q0 -189 -86 -290.5t-245 -101.5q-151 0 -231.5 96.5t-80.5 276.5zM1348 350 q0 -109 30 -167t86 -58q59 0 91 61t32 174q0 104 -31 161t-88 57q-58 0 -89 -59t-31 -169zM1145 348q0 182 84 279.5t239 97.5q154 0 238 -93.5t84 -264.5q0 -189 -86 -290.5t-246 -101.5q-150 0 -231.5 97t-81.5 276zM1294 1450h164l-831 -1475h-164zM352 1075 q0 -109 30.5 -167t86.5 -58q59 0 90 60.5t31 174.5q0 104 -31 161t-88 57q-58 0 -88.5 -58.5t-30.5 -169.5zM150 1073q0 183 83 280t238 97q154 0 238 -93.5t84 -264.5q0 -189 -86 -290.5t-246 -101.5q-151 0 -231 96.5t-80 276.5z" />
<glyph unicode="&#x2039;" horiz-adv-x="711" d="M332 119l-223 403l223 387h270l-194 -387l192 -403h-268z" />
<glyph unicode="&#x203a;" horiz-adv-x="711" d="M379 119h-268l192 403l-194 387h270l223 -387z" />
<glyph unicode="&#x20a3;" horiz-adv-x="1915" d="M141 0v1475h944v-244h-628v-348h585v-240h-585v-643h-316zM1259 0v709q0 87 -3 167t-9 152h274l11 -184q39 95 124.5 143.5t212.5 48.5h9l-1 -270l-40.5 3t-24.5 1q-117 0 -183.5 -57t-66.5 -158v-555h-303z" />
<glyph unicode="&#x20ac;" horiz-adv-x="1133" d="M443 954h366l-64 -141h-311v-20q0 -3 -1 -22t-1 -36q0 -15 1 -35t1 -24v-14h244l-64 -142h-171q3 -167 50.5 -249.5t141.5 -82.5q81 0 124.5 64t43.5 182v8h301q-10 -224 -128.5 -345.5t-328.5 -121.5q-225 0 -352 136.5t-156 408.5h-164l64 142h90v90v61h-180l61 141 h129q26 267 156 406t354 139q196 0 318 -116t130 -310h-296q0 101 -41.5 156t-116.5 55q-93 0 -142 -80.5t-58 -249.5z" />
<glyph unicode="&#x2122;" horiz-adv-x="1706" d="M803 1462h196l127 -332l123 332h197v-547h-135v410l-154 -410h-61l-158 410v-410h-135v547zM207 1462h485v-112h-168v-435h-149v435h-168v112z" />
<glyph unicode="&#x2202;" horiz-adv-x="1094" d="M762 662q19 99 29 188.5t10 155.5q0 100 -26 157.5t-70 57.5t-146 -73t-160 -73q-42 0 -71 30t-29 73q0 64 86.5 118t210.5 54q192 0 309 -161.5t117 -432.5q0 -339 -156.5 -560t-396.5 -221q-171 0 -282 114.5t-111 291.5q0 198 116 329.5t287 131.5q102 0 170 -43.5 t113 -136.5zM700 518q0 116 -38.5 178t-110.5 62q-101 0 -167.5 -134t-66.5 -341q0 -117 38.5 -177.5t111.5 -60.5q101 0 167 133.5t66 339.5z" />
<glyph unicode="&#x2206;" horiz-adv-x="1427" d="M713 1110l-326 -854h653zM563 1473h301l563 -1473h-1427z" />
<glyph unicode="&#x220f;" horiz-adv-x="1612" d="M150 1473h1308v-1866h-344v1577h-620v-1577h-344v1866z" />
<glyph unicode="&#x2211;" horiz-adv-x="1470" d="M66 1473h1308v-265h-878l620 -645l-622 -690h933v-266h-1386v172l698 772l-673 690v232z" />
<glyph unicode="&#x2212;" horiz-adv-x="1706" d="M254 713h1198v-203h-1198v203z" />
<glyph unicode="&#x2215;" horiz-adv-x="342" d="M-184 -25h-158l868 1475h158z" />
<glyph unicode="&#x2219;" horiz-adv-x="567" d="M131 723q0 63 43.5 107t106.5 44t107 -44t44 -107t-44 -107.5t-107 -44.5t-106.5 44.5t-43.5 107.5z" />
<glyph unicode="&#x221a;" horiz-adv-x="1346" d="M1141 1694h207v-129h-103l-592 -1606h-100l-311 858l-140 -51l-30 113l331 116l236 -661z" />
<glyph unicode="&#x221e;" horiz-adv-x="1706" d="M942 561q45 -75 106.5 -113t139.5 -38q94 0 152.5 55.5t58.5 144.5q0 87 -54 143t-135 56q-75 0 -138 -57.5t-130 -190.5zM766 659q-44 75 -105.5 112.5t-140.5 37.5q-94 0 -152.5 -56t-58.5 -145q0 -85 54 -141.5t135 -56.5q75 0 138 58t130 191zM858 457 q-68 -132 -146.5 -195t-174.5 -63q-140 0 -236 117.5t-96 293.5q0 184 85.5 297t223.5 113q92 0 170 -60t164 -198q68 132 148 196t175 64q139 0 235.5 -118.5t96.5 -293.5q0 -183 -86 -296t-223 -113q-93 0 -170.5 58.5t-165.5 197.5z" />
<glyph unicode="&#x222b;" horiz-adv-x="1186" d="M342 -252q102 0 121 639q3 136 6 211q16 508 123 732t328 224q98 0 157.5 -49t59.5 -129q0 -60 -38 -96.5t-100 -36.5q-46 0 -77 24t-41 68q-5 20 -7 54q-3 46 -30 47q-99 0 -119 -633q-4 -116 -6 -178q-11 -296 -31 -444.5t-59 -250.5q-56 -148 -148.5 -225.5 t-214.5 -77.5q-96 0 -156.5 49t-60.5 127q0 62 39 99t105 37q50 0 85 -31.5t35 -71.5q0 -58 6 -73t23 -15z" />
<glyph unicode="&#x2248;" horiz-adv-x="1706" d="M1530 596v-219q-106 -72 -198 -105.5t-181 -33.5q-95 0 -286.5 66.5t-301.5 66.5q-84 0 -174.5 -37t-210.5 -121v219q111 73 206.5 108t180.5 35q124 0 315.5 -65.5t274.5 -65.5q86 0 174 35.5t201 116.5zM1530 1008v-220q-106 -71 -196.5 -104t-180.5 -33 q-94 0 -286 65.5t-304 65.5q-82 0 -170 -35t-215 -122v219q107 71 204 107t183 36q125 0 316.5 -65.5t273.5 -65.5q84 0 171 35t204 117z" />
<glyph unicode="&#x2260;" horiz-adv-x="1706" d="M1198 1233l148 -119l-154 -192h260v-191h-389l-191 -239h580v-193h-707l-245 -309l-148 119l154 190h-252v193h377l190 239h-567v191h696z" />
<glyph unicode="&#x2264;" horiz-adv-x="1706" d="M258 195h1192v-197h-1192v197zM1448 1241v-209l-834 -264l834 -262v-209l-1190 385v174z" />
<glyph unicode="&#x2265;" horiz-adv-x="1706" d="M258 195h1192v-197h-1192v197zM260 1241l1188 -385v-174l-1188 -385v209l832 262l-832 264v209z" />
<glyph unicode="&#x25ca;" horiz-adv-x="1012" d="M506 1409l-385 -817l385 -825l385 825zM506 1653l500 -1061l-500 -1069l-500 1069z" />
<glyph unicode="&#xe000;" horiz-adv-x="1030" d="M0 1030h1030v-1030h-1030v1030z" />
<glyph unicode="&#xf000;" horiz-adv-x="1618" d="M836 1216q-1 6 -1.5 14t-0.5 23q0 124 95 229.5t236 131.5q1 -10 1.5 -23t0.5 -39q0 -131 -103.5 -234.5t-203.5 -103.5h-8q-3 0 -7.5 1t-8.5 1zM1505 403q-114 -247 -205 -342.5t-204 -95.5q-50 0 -131.5 33t-122.5 33q-45 0 -131 -33t-127 -33q-64 0 -128.5 44 t-129.5 132q-102 140 -157.5 295.5t-55.5 300.5q0 219 125 356.5t323 137.5q68 0 155 -34t124 -34q34 0 121.5 35t152.5 35q110 0 198 -40t161 -124q-102 -65 -151.5 -145.5t-49.5 -182.5q0 -113 60 -200t173 -138z" />
<glyph unicode="&#xf001;" horiz-adv-x="1249" d="M184 0v823h-155v205h155v199q0 138 78 206t236 68q26 0 62 -2.5t117 -11.5l1 -206q-19 2 -37 3.5t-33 1.5q-64 0 -97.5 -30.5t-33.5 -90.5v-137h182v-205h-182v-823h-293zM829 1214v261h299v-261h-299zM829 1028h299v-1028h-299v1028z" />
<glyph unicode="&#xf002;" horiz-adv-x="1262" d="M184 0v823h-155v205h155v199q0 138 78 206t236 68q26 0 62 -2.5t117 -11.5l1 -206q-19 2 -37 3.5t-33 1.5q-64 0 -97.5 -30.5t-33.5 -90.5v-137h182v-205h-182v-823h-293zM829 1475h299v-1475h-299v1475z" />
</font>
</defs>
</svg>
